<svg width="207" height="50" viewBox="0 0 207 50" fill="none" xmlns="http://www.w3.org/2000/svg">
<path d="M190.379 1.11343V6.14157C186.307 2.37719 180.887 0.199219 174.9 0.199219C162.306 0.199219 152.085 11.1697 152.085 24.6946C152.085 38.2195 162.306 49.19 174.9 49.19C180.887 49.19 186.307 46.4474 190.379 42.1184V47.6843H206.236V1.11343H190.379ZM179.997 35.3425C174.091 35.3425 169.318 30.5832 169.318 24.6946C169.318 18.8061 174.091 14.0468 179.997 14.0468C185.013 14.0468 189.22 17.5154 190.379 22.1671C190.568 22.9738 190.676 23.8342 190.676 24.6946C190.676 25.5551 190.568 26.4155 190.379 27.2221C189.22 31.8739 185.013 35.3425 179.997 35.3425Z" fill="#14182D"/>
<path d="M27.442 35.1811H48.0721V47.6574H0.474609L22.4531 13.5897H4.14218V1.11343H49.2857L27.442 35.1811Z" fill="#14182D"/>
<path d="M52.3459 1.10956V47.6535H68.2028V1.10956H52.3459Z" fill="#14182D"/>
<path d="M149.038 12.0839V47.6843H133.181V17.8381C131.833 14.9341 129.055 12.9981 125.873 12.9712C122.664 12.9444 119.805 14.8534 118.403 17.8381V47.6574H102.546V17.9456C101.468 14.3695 98.3664 13.025 94.7797 12.9981C91.6785 12.9713 88.9278 15.1492 87.4715 17.9456V47.6574H71.6147V1.11343H87.4715V7.05578C88.1187 6.24913 93.0807 0.387438 101.36 0.360549C110.933 0.333661 116.165 8.1851 116.515 8.72287C116.893 8.15821 122.421 0.17233 132.184 0.360549C139.465 0.494992 146.099 5.09293 148.957 12.0839H149.038Z" fill="#14182D"/>
</svg>
