<svg width="64" height="64" viewBox="0 0 64 64" fill="none" xmlns="http://www.w3.org/2000/svg">
<path fill-rule="evenodd" clip-rule="evenodd" d="M16.3783 16.3788C23.7437 9.01616 27.4237 5.3335 31.9997 5.3335C36.5757 5.3335 40.2557 9.0135 47.621 16.3788C54.9837 23.7442 58.6663 27.4242 58.6663 32.0002C58.6663 36.5762 54.9863 40.2562 47.621 47.6215C40.2557 54.9842 36.5757 58.6668 31.9997 58.6668C27.4237 58.6668 23.7437 54.9868 16.3783 47.6215C9.01568 40.2562 5.33301 36.5762 5.33301 32.0002C5.33301 27.4242 9.01301 23.7442 16.3783 16.3788ZM36.9223 22.5388C36.7306 22.3592 36.5054 22.2191 36.2595 22.1265C36.0136 22.0339 35.7519 21.9906 35.4893 21.9991C35.2267 22.0077 34.9683 22.0679 34.729 22.1762C34.4896 22.2846 34.274 22.4391 34.0943 22.6308C33.9147 22.8226 33.7746 23.0478 33.682 23.2937C33.5894 23.5396 33.5461 23.8013 33.5546 24.0639C33.5632 24.3265 33.6234 24.5848 33.7318 24.8242C33.8401 25.0635 33.9946 25.2792 34.1863 25.4588L37.6077 28.6668H28.445C26.965 28.6668 24.7703 29.0668 22.8797 30.3415C20.885 31.6882 19.333 33.9602 19.333 37.3335C19.333 37.8639 19.5437 38.3726 19.9188 38.7477C20.2939 39.1228 20.8026 39.3335 21.333 39.3335C21.8634 39.3335 22.3721 39.1228 22.7472 38.7477C23.1223 38.3726 23.333 37.8639 23.333 37.3335C23.333 35.3735 24.1517 34.3122 25.1197 33.6588C26.114 33.0248 27.2658 32.6812 28.445 32.6668H37.6077L34.1863 35.8748C33.8085 36.2398 33.5894 36.7388 33.5764 37.264C33.5635 37.7891 33.7576 38.2983 34.117 38.6815C34.4764 39.0647 34.9721 39.2911 35.497 39.3118C36.0219 39.3325 36.5339 39.1458 36.9223 38.7922L44.0343 32.1255C44.2337 31.9384 44.3927 31.7125 44.5013 31.4616C44.61 31.2107 44.666 30.9402 44.666 30.6668C44.666 30.3934 44.61 30.1229 44.5013 29.872C44.3927 29.6212 44.2337 29.3952 44.0343 29.2082L36.9223 22.5388Z" fill="white"/>
</svg>
