<svg width="28" height="28" viewBox="0 0 28 28" fill="none" xmlns="http://www.w3.org/2000/svg">
<path d="M15.1997 2.3335C16.5122 2.337 17.1783 2.344 17.7535 2.36033L17.9798 2.3685C18.2412 2.37783 18.499 2.3895 18.8105 2.4035C20.0518 2.46183 20.8988 2.65783 21.642 2.946C22.412 3.24233 23.0607 3.64366 23.7093 4.29116C24.3026 4.87437 24.7616 5.57985 25.0545 6.3585C25.3427 7.10166 25.5387 7.94866 25.597 9.19116C25.611 9.5015 25.6227 9.75933 25.632 10.0218L25.639 10.2482C25.6565 10.8222 25.6635 11.4883 25.6658 12.8008L25.667 13.6712V15.1995C25.6699 16.0505 25.6609 16.9014 25.6402 17.7522L25.6332 17.9785C25.6238 18.241 25.6122 18.4988 25.5982 18.8092C25.5398 20.0517 25.3415 20.8975 25.0545 21.6418C24.7625 22.4209 24.3033 23.1265 23.7093 23.7092C23.126 24.3022 22.4205 24.7612 21.642 25.0543C20.8988 25.3425 20.0518 25.5385 18.8105 25.5968C18.5337 25.6099 18.2568 25.6215 17.9798 25.6318L17.7535 25.6388C17.1783 25.6552 16.5122 25.6633 15.1997 25.6657L14.3293 25.6668H12.8022C11.9508 25.6698 11.0995 25.6608 10.2483 25.64L10.022 25.633C9.74506 25.6225 9.46817 25.6104 9.19135 25.5968C7.95001 25.5385 7.10301 25.3425 6.35868 25.0543C5.58013 24.7619 4.87493 24.3028 4.29251 23.7092C3.69873 23.1262 3.23928 22.4206 2.94618 21.6418C2.65801 20.8987 2.46201 20.0517 2.40368 18.8092C2.39068 18.5323 2.37902 18.2554 2.36868 17.9785L2.36285 17.7522C2.34135 16.9014 2.33163 16.0505 2.33368 15.1995V12.8008C2.33042 11.9499 2.33898 11.0989 2.35935 10.2482L2.36751 10.0218C2.37685 9.75933 2.38851 9.5015 2.40251 9.19116C2.46085 7.94866 2.65685 7.10283 2.94501 6.3585C3.23798 5.57905 3.69835 4.87336 4.29368 4.29116C4.87595 3.69788 5.58068 3.23881 6.35868 2.946C7.10301 2.65783 7.94885 2.46183 9.19135 2.4035C9.50168 2.3895 9.76068 2.37783 10.022 2.3685L10.2483 2.3615C11.0991 2.34077 11.95 2.33182 12.801 2.33466L15.1997 2.3335ZM14.0003 8.16683C12.4533 8.16683 10.9695 8.78141 9.87556 9.87537C8.7816 10.9693 8.16701 12.4531 8.16701 14.0002C8.16701 15.5473 8.7816 17.031 9.87556 18.125C10.9695 19.2189 12.4533 19.8335 14.0003 19.8335C15.5474 19.8335 17.0312 19.2189 18.1251 18.125C19.2191 17.031 19.8337 15.5473 19.8337 14.0002C19.8337 12.4531 19.2191 10.9693 18.1251 9.87537C17.0312 8.78141 15.5474 8.16683 14.0003 8.16683ZM14.0003 10.5002C14.46 10.5001 14.9151 10.5905 15.3398 10.7664C15.7645 10.9422 16.1503 11.1999 16.4754 11.5249C16.8005 11.8498 17.0583 12.2356 17.2343 12.6602C17.4102 13.0848 17.5009 13.54 17.5009 13.9996C17.501 14.4592 17.4106 14.9143 17.2347 15.339C17.0589 15.7637 16.8012 16.1496 16.4762 16.4746C16.1513 16.7997 15.7655 17.0576 15.3409 17.2335C14.9163 17.4095 14.4611 17.5001 14.0015 17.5002C13.0733 17.5002 12.183 17.1314 11.5266 16.475C10.8703 15.8187 10.5015 14.9284 10.5015 14.0002C10.5015 13.0719 10.8703 12.1817 11.5266 11.5253C12.183 10.8689 13.0733 10.5002 14.0015 10.5002M20.1265 6.41683C19.7397 6.41683 19.3688 6.57047 19.0953 6.84397C18.8218 7.11746 18.6682 7.48839 18.6682 7.87516C18.6682 8.26194 18.8218 8.63287 19.0953 8.90636C19.3688 9.17985 19.7397 9.3335 20.1265 9.3335C20.5133 9.3335 20.8842 9.17985 21.1577 8.90636C21.4312 8.63287 21.5848 8.26194 21.5848 7.87516C21.5848 7.48839 21.4312 7.11746 21.1577 6.84397C20.8842 6.57047 20.5133 6.41683 20.1265 6.41683Z" fill="#14182D"/>
</svg>
