<svg width="58" height="58" viewBox="0 0 58 58" fill="none" xmlns="http://www.w3.org/2000/svg">
<g clip-path="url(#clip0_63_218)">
<path d="M29 -40C18.9939 -40 10.875 -32.6922 10.875 -23.6875C10.875 -9.1875 29 10.75 29 10.75C29 10.75 47.125 -9.1875 47.125 -23.6875C47.125 -32.6922 39.0061 -40 29 -40ZM29 -14.625C27.5661 -14.625 26.1644 -15.0502 24.9721 -15.8468C23.7799 -16.6435 22.8506 -17.7758 22.3019 -19.1005C21.7531 -20.4253 21.6096 -21.883 21.8893 -23.2894C22.169 -24.6958 22.8595 -25.9876 23.8735 -27.0015C24.8874 -28.0155 26.1792 -28.706 27.5856 -28.9857C28.992 -29.2654 30.4497 -29.1219 31.7745 -28.5731C33.0992 -28.0244 34.2315 -27.0951 35.0282 -25.9029C35.8248 -24.7106 36.25 -23.3089 36.25 -21.875C36.2479 -19.9528 35.4834 -18.11 34.1242 -16.7508C32.765 -15.3916 30.9222 -14.6271 29 -14.625Z" fill="white"/>
</g>
<defs>
<clipPath id="clip0_63_218">
<rect width="58" height="58" fill="white"/>
</clipPath>
</defs>
</svg>
