<svg width="24" height="24" viewBox="0 0 24 24" fill="none" xmlns="http://www.w3.org/2000/svg">
<path fill-rule="evenodd" clip-rule="evenodd" d="M12 0C5.3724 0 0 5.3724 0 12C0 14.268 0.63 16.392 1.7256 18.2016L0.6552 21.84C0.593742 22.0489 0.589698 22.2705 0.643493 22.4815C0.697289 22.6925 0.806937 22.8851 0.960911 23.0391C1.11489 23.1931 1.3075 23.3027 1.5185 23.3565C1.7295 23.4103 1.9511 23.4062 2.16 23.3448L5.7984 22.2744C7.66881 23.4061 9.81386 24.003 12 24C18.6276 24 24 18.6276 24 12C24 5.3724 18.6276 0 12 0ZM9.2856 14.7156C11.7132 17.142 14.0304 17.4624 14.8488 17.4924C16.0932 17.538 17.3052 16.5876 17.7768 15.4848C17.8363 15.3476 17.8579 15.1969 17.8394 15.0486C17.8208 14.9002 17.7627 14.7595 17.6712 14.6412C17.0136 13.8012 16.1244 13.1976 15.2556 12.5976C15.0742 12.4722 14.8513 12.4219 14.6336 12.4572C14.4159 12.4926 14.2204 12.6108 14.088 12.7872L13.368 13.8852C13.3301 13.9442 13.2712 13.9865 13.2031 14.0035C13.1351 14.0205 13.0631 14.0108 13.002 13.9764C12.5136 13.6968 11.802 13.2216 11.2908 12.7104C10.7796 12.1992 10.3332 11.52 10.0824 11.0628C10.0513 11.0047 10.0423 10.9373 10.0571 10.8731C10.0719 10.8089 10.1094 10.7522 10.1628 10.7136L11.2716 9.8904C11.4298 9.75281 11.532 9.56183 11.5585 9.35383C11.5851 9.14583 11.5342 8.93532 11.4156 8.7624C10.878 7.9752 10.2516 6.9744 9.3432 6.3108C9.22597 6.22584 9.08864 6.17287 8.94472 6.15709C8.8008 6.14131 8.65526 6.16326 8.5224 6.2208C7.4184 6.6936 6.4632 7.9056 6.5088 9.1524C6.5388 9.9708 6.8592 12.288 9.2856 14.7156Z" fill="#14182D"/>
</svg>
