<svg width="28" height="28" viewBox="0 0 28 28" fill="none" xmlns="http://www.w3.org/2000/svg">
<path d="M15.1997 2.33325C16.5122 2.33675 17.1783 2.34375 17.7535 2.36009L17.9798 2.36825C18.2412 2.37759 18.499 2.38925 18.8105 2.40325C20.0518 2.46159 20.8988 2.65759 21.642 2.94575C22.412 3.24209 23.0607 3.64342 23.7093 4.29092C24.3026 4.87413 24.7616 5.57961 25.0545 6.35825C25.3427 7.10142 25.5387 7.94842 25.597 9.19092C25.611 9.50125 25.6227 9.75909 25.632 10.0216L25.639 10.2479C25.6565 10.8219 25.6635 11.4881 25.6658 12.8006L25.667 13.6709V15.1993C25.6699 16.0502 25.6609 16.9012 25.6402 17.7519L25.6332 17.9783C25.6238 18.2408 25.6122 18.4986 25.5982 18.8089C25.5398 20.0514 25.3415 20.8973 25.0545 21.6416C24.7625 22.4207 24.3033 23.1263 23.7093 23.7089C23.126 24.302 22.4205 24.761 21.642 25.0541C20.8988 25.3423 20.0518 25.5383 18.8105 25.5966C18.5337 25.6096 18.2568 25.6213 17.9798 25.6316L17.7535 25.6386C17.1783 25.6549 16.5122 25.6631 15.1997 25.6654L14.3293 25.6666H12.8022C11.9508 25.6695 11.0995 25.6606 10.2483 25.6398L10.022 25.6328C9.74506 25.6223 9.46817 25.6102 9.19135 25.5966C7.95001 25.5383 7.10301 25.3423 6.35868 25.0541C5.58013 24.7617 4.87493 24.3026 4.29251 23.7089C3.69873 23.1259 3.23928 22.4204 2.94618 21.6416C2.65801 20.8984 2.46201 20.0514 2.40368 18.8089C2.39068 18.5321 2.37902 18.2552 2.36868 17.9783L2.36285 17.7519C2.34135 16.9012 2.33163 16.0502 2.33368 15.1993V12.8006C2.33042 11.9496 2.33898 11.0986 2.35935 10.2479L2.36751 10.0216C2.37685 9.75909 2.38851 9.50125 2.40251 9.19092C2.46085 7.94842 2.65685 7.10258 2.94501 6.35825C3.23798 5.57881 3.69835 4.87311 4.29368 4.29092C4.87595 3.69764 5.58068 3.23857 6.35868 2.94575C7.10301 2.65759 7.94885 2.46159 9.19135 2.40325C9.50168 2.38925 9.76068 2.37759 10.022 2.36825L10.2483 2.36125C11.0991 2.34052 11.95 2.33158 12.801 2.33442L15.1997 2.33325ZM14.0003 8.16659C12.4533 8.16659 10.9695 8.78117 9.87556 9.87513C8.7816 10.9691 8.16701 12.4528 8.16701 13.9999C8.16701 15.547 8.7816 17.0307 9.87556 18.1247C10.9695 19.2187 12.4533 19.8333 14.0003 19.8333C15.5474 19.8333 17.0312 19.2187 18.1251 18.1247C19.2191 17.0307 19.8337 15.547 19.8337 13.9999C19.8337 12.4528 19.2191 10.9691 18.1251 9.87513C17.0312 8.78117 15.5474 8.16659 14.0003 8.16659ZM14.0003 10.4999C14.46 10.4998 14.9151 10.5903 15.3398 10.7661C15.7645 10.9419 16.1503 11.1997 16.4754 11.5246C16.8005 11.8496 17.0583 12.2354 17.2343 12.66C17.4102 13.0846 17.5009 13.5397 17.5009 13.9993C17.501 14.459 17.4106 14.9141 17.2347 15.3388C17.0589 15.7634 16.8012 16.1493 16.4762 16.4744C16.1513 16.7994 15.7655 17.0573 15.3409 17.2333C14.9163 17.4092 14.4611 17.4998 14.0015 17.4999C13.0733 17.4999 12.183 17.1312 11.5266 16.4748C10.8703 15.8184 10.5015 14.9282 10.5015 13.9999C10.5015 13.0717 10.8703 12.1814 11.5266 11.525C12.183 10.8687 13.0733 10.4999 14.0015 10.4999M20.1265 6.41659C19.7397 6.41659 19.3688 6.57023 19.0953 6.84372C18.8218 7.11721 18.6682 7.48814 18.6682 7.87492C18.6682 8.26169 18.8218 8.63263 19.0953 8.90612C19.3688 9.17961 19.7397 9.33325 20.1265 9.33325C20.5133 9.33325 20.8842 9.17961 21.1577 8.90612C21.4312 8.63263 21.5848 8.26169 21.5848 7.87492C21.5848 7.48814 21.4312 7.11721 21.1577 6.84372C20.8842 6.57023 20.5133 6.41659 20.1265 6.41659Z" fill="#14182D"/>
</svg>
