<svg width="126" height="30" viewBox="0 0 126 30" fill="none" xmlns="http://www.w3.org/2000/svg">
<path d="M116.29 0.559825V3.63886C113.796 1.3337 110.477 0 106.811 0C99.0991 0 92.8404 6.71789 92.8404 15C92.8404 23.2821 99.0991 30 106.811 30C110.477 30 113.796 28.3205 116.29 25.6696V29.0779H126V0.559825H116.29ZM109.932 21.5203C106.316 21.5203 103.393 18.6059 103.393 15C103.393 11.3941 106.316 8.47969 109.932 8.47969C113.004 8.47969 115.58 10.6037 116.29 13.4523C116.406 13.9462 116.472 14.4731 116.472 15C116.472 15.5269 116.406 16.0538 116.29 16.5477C115.58 19.3963 113.004 21.5203 109.932 21.5203Z" fill="#14182D"/>
<path d="M16.5138 21.4215H29.1468V29.0615H0L13.4587 8.19978H2.24587V0.559824H29.8899L16.5138 21.4215Z" fill="#14182D"/>
<path d="M31.7639 0.557459V29.0591H41.474V0.557459H31.7639Z" fill="#14182D"/>
<path d="M90.9743 7.27772V29.0779H81.2642V10.8013C80.4385 9.02305 78.7376 7.83754 76.789 7.82108C74.8239 7.80461 73.0734 8.97365 72.2147 10.8013V29.0615H62.5046V10.8672C61.844 8.67728 59.945 7.85401 57.7486 7.83754C55.8495 7.82108 54.1651 9.15477 53.2734 10.8672V29.0615H43.5633V0.559825H53.2734V4.19868C53.6697 3.70472 56.7083 0.115258 61.778 0.0987922C67.6404 0.0823268 70.844 4.89023 71.0587 5.21954C71.2899 4.87376 74.6752 -0.0164657 80.6532 0.0987922C85.1119 0.181119 89.1743 2.99671 90.9248 7.27772H90.9743Z" fill="#14182D"/>
</svg>
