<svg width="1200" height="450" viewBox="0 0 1200 450" fill="none" xmlns="http://www.w3.org/2000/svg">
<mask id="mask0_63_245" style="mask-type:alpha" maskUnits="userSpaceOnUse" x="0" y="0" width="1200" height="450">
<rect width="1200" height="450" rx="54" fill="#14182D"/>
</mask>
<g mask="url(#mask0_63_245)">
<rect width="1200" height="450" rx="54" fill="#14182D"/>
<rect x="-687" y="355.204" width="2577" height="104" transform="rotate(-6.2199 -687 355.204)" fill="#D9D9D9" fill-opacity="0.22"/>
<path d="M-161.134 349.567L-160.858 352.107C-160.452 355.833 -160.583 359.24 -161.251 362.328C-161.922 365.394 -163.059 368.065 -164.662 370.342C-166.264 372.618 -168.269 374.447 -170.677 375.829C-173.086 377.211 -175.836 378.071 -178.929 378.408C-181.977 378.74 -184.837 378.492 -187.509 377.664C-190.158 376.833 -192.522 375.48 -194.6 373.605C-196.677 371.729 -198.385 369.368 -199.724 366.521C-201.065 363.652 -201.938 360.354 -202.344 356.629L-202.621 354.089C-203.029 350.341 -202.887 346.933 -202.193 343.864C-201.499 340.796 -200.351 338.124 -198.749 335.847C-197.149 333.548 -195.145 331.708 -192.737 330.326C-190.306 328.941 -187.567 328.083 -184.519 327.751C-181.426 327.414 -178.554 327.661 -175.905 328.491C-173.256 329.322 -170.902 330.688 -168.845 332.588C-166.767 334.463 -165.07 336.826 -163.755 339.675C-162.416 342.522 -161.543 345.819 -161.134 349.567ZM-170.272 353.133L-170.557 350.526C-170.849 347.839 -171.355 345.507 -172.073 343.529C-172.794 341.528 -173.716 339.881 -174.839 338.587C-175.963 337.293 -177.274 336.374 -178.772 335.829C-180.273 335.261 -181.916 335.075 -183.699 335.269C-185.506 335.466 -187.069 336.002 -188.39 336.877C-189.691 337.727 -190.751 338.905 -191.569 340.411C-192.388 341.916 -192.944 343.725 -193.24 345.836C-193.515 347.922 -193.506 350.308 -193.213 352.995L-192.929 355.603C-192.639 358.267 -192.133 360.599 -191.413 362.6C-190.669 364.598 -189.735 366.255 -188.609 367.571C-187.463 368.863 -186.151 369.794 -184.672 370.364C-183.194 370.934 -181.551 371.12 -179.745 370.923C-177.939 370.726 -176.375 370.191 -175.054 369.315C-173.733 368.44 -172.675 367.251 -171.879 365.748C-171.063 364.22 -170.519 362.401 -170.246 360.293C-169.973 358.184 -169.982 355.798 -170.272 353.133ZM-147.284 321.637L-141.615 373.656L-150.589 374.634L-156.259 322.615L-147.284 321.637ZM-111.95 362.541L-116.77 318.311L-107.762 317.329L-102.092 369.348L-110.22 370.234L-111.95 362.541ZM-136.587 355.014L-136.664 354.303C-136.969 351.503 -136.93 348.928 -136.547 346.579C-136.143 344.205 -135.41 342.126 -134.348 340.343C-133.286 338.559 -131.923 337.12 -130.261 336.025C-128.575 334.927 -126.604 334.255 -124.346 334.009C-122.156 333.771 -120.2 334.003 -118.479 334.706C-116.735 335.407 -115.198 336.508 -113.87 338.008C-112.518 339.506 -111.371 341.334 -110.427 343.493C-109.486 345.629 -108.713 348.012 -108.106 350.642L-107.896 352.572C-107.929 355.203 -108.177 357.64 -108.641 359.884C-109.105 362.128 -109.835 364.127 -110.832 365.88C-111.809 367.609 -113.073 369.003 -114.625 370.063C-116.177 371.123 -118.06 371.774 -120.273 372.015C-122.508 372.259 -124.568 372.015 -126.452 371.284C-128.314 370.55 -129.957 369.415 -131.381 367.88C-132.782 366.342 -133.933 364.48 -134.834 362.293C-135.712 360.104 -136.296 357.678 -136.587 355.014ZM-127.69 353.324L-127.612 354.036C-127.44 355.616 -127.143 357.08 -126.722 358.428C-126.301 359.776 -125.728 360.947 -125.003 361.942C-124.28 362.914 -123.413 363.642 -122.4 364.125C-121.366 364.606 -120.159 364.772 -118.782 364.622C-117.021 364.43 -115.618 363.889 -114.573 362.998C-113.507 362.082 -112.733 360.913 -112.248 359.489C-111.766 358.043 -111.528 356.452 -111.534 354.716L-112.114 349.399C-112.352 348.055 -112.726 346.827 -113.235 345.718C-113.722 344.606 -114.349 343.669 -115.118 342.907C-115.863 342.143 -116.747 341.577 -117.77 341.209C-118.793 340.84 -119.97 340.729 -121.302 340.874C-122.679 341.024 -123.82 341.457 -124.724 342.172C-125.631 342.865 -126.332 343.775 -126.826 344.903C-127.32 346.031 -127.637 347.31 -127.778 348.742C-127.896 350.171 -127.867 351.699 -127.69 353.324ZM-51.6378 350.896C-51.7411 349.948 -51.9801 349.117 -52.3548 348.404C-52.7094 347.666 -53.2925 347.032 -54.104 346.504C-54.8954 345.951 -55.9891 345.453 -57.3852 345.011C-58.7611 344.544 -60.5233 344.097 -62.6718 343.668C-65.0535 343.197 -67.287 342.618 -69.3722 341.931C-71.4575 341.245 -73.3217 340.385 -74.9648 339.354C-76.5854 338.319 -77.8982 337.069 -78.9034 335.602C-79.911 334.113 -80.528 332.329 -80.7544 330.252C-80.9758 328.22 -80.7486 326.322 -80.0728 324.558C-79.3743 322.791 -78.2888 321.222 -76.8162 319.851C-75.3461 318.457 -73.5629 317.315 -71.4668 316.424C-69.3482 315.53 -66.968 314.939 -64.3264 314.652C-60.6688 314.253 -57.4354 314.574 -54.626 315.616C-51.7941 316.655 -49.5201 318.235 -47.804 320.356C-46.0879 322.476 -45.0749 324.959 -44.7648 327.803L-54.0443 328.815C-54.2116 327.28 -54.6866 325.961 -55.4693 324.858C-56.2295 323.753 -57.3012 322.933 -58.6845 322.398C-60.0453 321.861 -61.7078 321.7 -63.672 321.914C-65.5686 322.12 -67.1182 322.575 -68.3211 323.277C-69.5013 323.977 -70.3546 324.847 -70.881 325.886C-71.3848 326.924 -71.5715 328.041 -71.4411 329.237C-71.3426 330.14 -71.0396 330.93 -70.5318 331.606C-70.0266 332.259 -69.3105 332.855 -68.3837 333.393C-67.4593 333.909 -66.3354 334.369 -65.012 334.774C-63.6685 335.153 -62.1217 335.509 -60.3718 335.844C-57.5739 336.362 -55.1048 337.006 -52.9646 337.778C-50.8017 338.548 -48.9741 339.491 -47.4816 340.608C-45.9666 341.722 -44.7843 343.032 -43.9347 344.539C-43.0625 346.043 -42.517 347.8 -42.298 349.809C-42.0667 351.932 -42.2777 353.874 -42.9309 355.636C-43.5842 357.397 -44.6258 358.95 -46.0557 360.294C-47.4856 361.638 -49.2624 362.734 -51.386 363.582C-53.487 364.428 -55.8809 364.997 -58.5676 365.29C-60.9609 365.551 -63.366 365.493 -65.783 365.117C-68.1798 364.716 -70.3967 363.975 -72.4334 362.895C-74.4727 361.792 -76.165 360.308 -77.5104 358.445C-78.8583 356.558 -79.6787 354.272 -79.9715 351.585L-70.6243 350.566C-70.4545 352.124 -70.061 353.429 -69.4437 354.481C-68.8063 355.508 -67.9866 356.322 -66.9847 356.921C-65.9626 357.495 -64.8022 357.871 -63.5034 358.049C-62.2046 358.227 -60.8214 358.236 -59.3538 358.076C-57.4573 357.87 -55.9277 357.44 -54.7651 356.788C-53.5824 356.111 -52.7379 355.265 -52.2317 354.25C-51.7029 353.233 -51.5049 352.115 -51.6378 350.896ZM-20.0502 353.964C-18.7858 353.826 -17.684 353.455 -16.7447 352.85C-15.8054 352.245 -15.0915 351.459 -14.6029 350.492C-14.0917 349.522 -13.8788 348.437 -13.964 347.235L-5.53126 346.316C-5.30574 348.805 -5.76328 351.105 -6.90386 353.217C-8.04445 355.329 -9.68088 357.083 -11.8132 358.481C-13.9253 359.854 -16.3699 360.691 -19.147 360.994C-21.9692 361.301 -24.4818 361.095 -26.6849 360.376C-28.888 359.657 -30.7817 358.526 -32.3661 356.986C-33.9279 355.442 -35.1805 353.591 -36.124 351.432C-37.045 349.271 -37.6445 346.915 -37.9225 344.364L-38.0406 343.28C-38.3187 340.729 -38.2408 338.298 -37.8071 335.989C-37.3508 333.678 -36.5263 331.6 -35.3336 329.757C-34.1184 327.911 -32.5125 326.4 -30.5162 325.223C-28.5198 324.045 -26.1218 323.304 -23.3221 322.999C-20.3645 322.677 -17.7053 322.97 -15.3446 323.877C-12.9613 324.783 -11.0231 326.216 -9.5299 328.178C-8.01413 330.138 -7.07865 332.538 -6.72345 335.377L-15.1562 336.296C-15.3441 334.992 -15.7656 333.85 -16.4206 332.87C-17.0757 331.891 -17.9344 331.139 -18.9967 330.615C-20.059 330.091 -21.3013 329.907 -22.7237 330.062C-24.2364 330.227 -25.4664 330.681 -26.4134 331.424C-27.338 332.164 -28.0222 333.118 -28.466 334.286C-28.8898 335.429 -29.1407 336.69 -29.2189 338.069C-29.2769 339.423 -29.2259 340.834 -29.066 342.302L-28.9479 343.385C-28.7855 344.876 -28.5289 346.287 -28.178 347.619C-27.8046 348.949 -27.2879 350.127 -26.6279 351.151C-25.9478 352.151 -25.0766 352.913 -24.0143 353.437C-22.9294 353.958 -21.608 354.134 -20.0502 353.964ZM4.87854 305.053L10.5479 357.072L1.57326 358.05L-4.0961 306.031L4.87854 305.053ZM6.98473 337.584L4.34314 337.872C4.06508 335.321 4.14784 332.936 4.59141 330.717C5.03498 328.499 5.79152 326.531 6.86105 324.816C7.92812 323.077 9.27162 321.674 10.8916 320.607C12.5341 319.537 14.4052 318.887 16.5049 318.659C18.3111 318.462 19.9763 318.543 21.5005 318.902C23.0447 319.237 24.4077 319.899 25.5895 320.89C26.7712 321.88 27.7415 323.237 28.5003 324.959C29.2792 326.656 29.8065 328.769 30.0821 331.298L32.6289 354.666L23.6204 355.647L21.0662 332.212C20.8817 330.518 20.4881 329.213 19.8856 328.297C19.2806 327.357 18.4919 326.724 17.5195 326.396C16.5696 326.065 15.4287 325.972 14.0966 326.117C12.6516 326.275 11.4406 326.693 10.4635 327.37C9.48401 328.025 8.70849 328.875 8.13697 329.92C7.58803 330.962 7.21312 332.134 7.01225 333.435C6.83396 334.734 6.82479 336.117 6.98473 337.584ZM36.9719 336.03L36.8943 335.319C36.6015 332.632 36.7159 330.118 37.2375 327.776C37.7566 325.412 38.6589 323.315 39.9443 321.484C41.2298 319.654 42.8832 318.16 44.9047 317.003C46.9236 315.823 49.2878 315.086 51.9971 314.79C54.7516 314.49 57.2416 314.699 59.4673 315.416C61.713 316.107 63.6608 317.209 65.3104 318.72C66.96 320.23 68.2929 322.084 69.3091 324.281C70.3228 326.455 70.9761 328.885 71.2689 331.572L71.3464 332.283C71.6368 334.948 71.5224 337.462 71.0033 339.826C70.4817 342.167 69.5794 344.264 68.2964 346.118C67.0109 347.948 65.3575 349.442 63.3361 350.599C61.3147 351.756 58.938 352.484 56.2061 352.781C53.4968 353.077 51.0192 352.878 48.7735 352.186C46.5277 351.494 44.58 350.393 42.9304 348.882C41.2783 347.349 39.9453 345.495 38.9316 343.321C37.9155 341.124 37.2622 338.694 36.9719 336.03ZM45.8351 334.344L45.9126 335.055C46.0873 336.658 46.409 338.143 46.8777 339.508C47.3463 340.873 47.9658 342.051 48.7362 343.041C49.5066 344.03 50.4443 344.774 51.5494 345.27C52.6745 345.741 53.9708 345.897 55.4384 345.737C56.8834 345.58 58.0931 345.151 59.0677 344.451C60.0399 343.728 60.7955 342.8 61.3346 341.668C61.8963 340.533 62.2589 339.248 62.4224 337.814C62.5859 336.379 62.5803 334.861 62.4056 333.258L62.3281 332.547C62.1559 330.966 61.8367 329.505 61.3705 328.162C60.9018 326.796 60.271 325.62 59.478 324.633C58.7052 323.62 57.7549 322.867 56.6273 322.373C55.5199 321.854 54.2324 321.675 52.7648 321.835C51.3198 321.992 50.1125 322.444 49.1428 323.189C48.1707 323.912 47.4163 324.851 46.8797 326.006C46.3406 327.138 45.9893 328.422 45.8257 329.856C45.6597 331.268 45.6629 332.764 45.8351 334.344ZM76.2571 331.748L76.1796 331.037C75.8867 328.35 76.0011 325.836 76.5227 323.495C77.0418 321.131 77.9441 319.033 79.2296 317.203C80.515 315.372 82.1685 313.878 84.1899 312.721C86.2088 311.542 88.573 310.804 91.2823 310.509C94.0368 310.209 96.5268 310.417 98.7525 311.134C100.998 311.826 102.946 312.927 104.596 314.438C106.245 315.949 107.578 317.803 108.594 319.999C109.608 322.173 110.261 324.604 110.554 327.291L110.632 328.002C110.922 330.666 110.808 333.18 110.288 335.544C109.767 337.886 108.865 339.983 107.582 341.836C106.296 343.667 104.643 345.161 102.621 346.318C100.6 347.475 98.2232 348.202 95.4913 348.5C92.782 348.795 90.3044 348.597 88.0587 347.905C85.8129 347.213 83.8652 346.111 82.2156 344.601C80.5635 343.067 79.2306 341.214 78.2169 339.039C77.2007 336.843 76.5474 334.412 76.2571 331.748ZM85.1203 330.063L85.1978 330.774C85.3725 332.377 85.6942 333.861 86.1629 335.226C86.6315 336.592 87.251 337.769 88.0214 338.759C88.7919 339.749 89.7296 340.492 90.8346 340.988C91.9597 341.46 93.256 341.615 94.7236 341.456C96.1686 341.298 97.3783 340.869 98.3529 340.169C99.3251 339.446 100.081 338.519 100.62 337.386C101.181 336.251 101.544 334.966 101.708 333.532C101.871 332.098 101.866 330.579 101.691 328.976L101.613 328.265C101.441 326.685 101.122 325.223 100.656 323.88C100.187 322.515 99.5562 321.338 98.7632 320.351C97.9904 319.339 97.0401 318.586 95.9126 318.092C94.8051 317.573 93.5176 317.393 92.05 317.553C90.605 317.711 89.3977 318.162 88.428 318.907C87.4559 319.63 86.7015 320.569 86.1649 321.724C85.6258 322.857 85.2745 324.14 85.1109 325.574C84.9449 326.986 84.9481 328.482 85.1203 330.063ZM122.903 292.19L128.573 344.209L119.598 345.187L113.929 293.168L122.903 292.19Z" fill="url(#paint0_linear_63_245)"/>
<path d="M193.465 287.241L211.38 285.289C215.128 284.88 218.407 285.094 221.217 285.93C224.026 286.766 226.274 288.212 227.96 290.267C229.647 292.322 230.666 294.964 231.017 298.192C231.295 300.744 231.085 303.006 230.386 304.978C229.687 306.95 228.583 308.658 227.072 310.102C225.585 311.544 223.774 312.747 221.64 313.71L218.89 315.518L203.074 317.241L202.205 309.9L214.025 308.612C215.944 308.402 217.499 307.89 218.689 307.075C219.88 306.26 220.726 305.22 221.228 303.954C221.752 302.686 221.93 301.285 221.763 299.749C221.584 298.101 221.112 296.713 220.35 295.585C219.585 294.435 218.523 293.603 217.165 293.088C215.807 292.574 214.145 292.424 212.181 292.638L203.579 293.575L208.152 335.536L198.839 336.551L193.465 287.241ZM226.677 333.517L212.857 312.68L222.709 311.572L236.616 331.954L236.668 332.428L226.677 333.517ZM258.789 330.703C256.012 331.005 253.468 330.826 251.156 330.164C248.845 329.502 246.824 328.454 245.091 327.021C243.379 325.563 241.988 323.806 240.919 321.753C239.87 319.674 239.21 317.393 238.939 314.909L238.791 313.554C238.484 310.732 238.611 308.125 239.173 305.734C239.732 303.32 240.666 301.196 241.974 299.363C243.282 297.53 244.925 296.048 246.904 294.919C248.883 293.789 251.125 293.088 253.631 292.815C256.228 292.532 258.567 292.723 260.65 293.387C262.731 294.028 264.523 295.066 266.027 296.502C267.532 297.937 268.743 299.724 269.661 301.863C270.577 303.979 271.181 306.369 271.471 309.033L271.881 312.792L243.162 315.922L242.49 309.759L262.404 307.588L262.33 306.911C262.13 305.494 261.717 304.225 261.093 303.105C260.465 301.962 259.594 301.098 258.48 300.511C257.362 299.902 255.979 299.687 254.331 299.867C252.999 300.012 251.868 300.432 250.939 301.127C250.03 301.798 249.305 302.699 248.766 303.831C248.247 304.939 247.909 306.232 247.75 307.712C247.591 309.191 247.608 310.811 247.8 312.573L247.948 313.927C248.115 315.462 248.473 316.863 249.022 318.128C249.594 319.391 250.339 320.463 251.258 321.345C252.196 322.203 253.271 322.839 254.482 323.256C255.712 323.647 257.073 323.762 258.563 323.599C260.437 323.395 262.091 322.849 263.525 321.962C264.979 321.049 266.191 319.809 267.163 318.241L272.176 322.424C271.532 323.636 270.611 324.833 269.415 326.015C268.241 327.194 266.776 328.21 265.018 329.064C263.258 329.896 261.182 330.442 258.789 330.703ZM298.912 317.762L297.07 300.863C296.935 299.621 296.604 298.572 296.076 297.716C295.549 296.859 294.818 296.231 293.883 295.83C292.948 295.429 291.804 295.303 290.449 295.45C289.253 295.581 288.225 295.899 287.366 296.403C286.53 296.906 285.915 297.555 285.522 298.352C285.127 299.126 284.981 299.987 285.084 300.936L276.11 301.914C275.945 300.401 276.15 298.928 276.724 297.495C277.297 296.039 278.191 294.707 279.408 293.501C280.644 292.27 282.166 291.247 283.974 290.433C285.804 289.617 287.893 289.081 290.241 288.825C293.018 288.522 295.542 288.727 297.813 289.439C300.104 290.126 301.972 291.339 303.418 293.078C304.887 294.814 305.776 297.104 306.086 299.949L307.828 315.934C308.028 317.763 308.312 319.32 308.68 320.604C309.069 321.864 309.552 322.943 310.129 323.839L310.192 324.415L301.082 325.408C300.552 324.529 300.097 323.39 299.716 321.993C299.333 320.572 299.065 319.162 298.912 317.762ZM298.582 303.097L299.229 308.407L293.573 309.023C292.173 309.176 290.959 309.457 289.93 309.866C288.898 310.252 288.073 310.753 287.455 311.369C286.834 311.962 286.395 312.65 286.138 313.432C285.878 314.191 285.798 315.034 285.899 315.959C285.998 316.862 286.289 317.653 286.774 318.331C287.282 319.007 287.954 319.516 288.791 319.859C289.649 320.177 290.619 320.277 291.703 320.159C293.283 319.987 294.626 319.52 295.731 318.76C296.834 317.977 297.662 317.088 298.216 316.091C298.77 315.094 299.024 314.175 298.978 313.335L301.972 316.915C301.757 317.875 301.39 318.909 300.871 320.016C300.352 321.124 299.645 322.183 298.75 323.195C297.855 324.206 296.74 325.081 295.404 325.821C294.068 326.561 292.475 327.031 290.623 327.233C288.253 327.491 286.079 327.249 284.101 326.505C282.124 325.76 280.504 324.623 279.24 323.093C277.977 321.563 277.231 319.748 277.002 317.649C276.79 315.707 276.965 313.952 277.525 312.383C278.085 310.814 279.021 309.444 280.332 308.273C281.641 307.079 283.318 306.109 285.361 305.36C287.424 304.587 289.822 304.052 292.554 303.754L298.582 303.097ZM320.643 270.639L326.312 322.658L317.338 323.636L311.668 271.617L320.643 270.639ZM340.336 284.051L344.329 320.694L335.355 321.672L331.361 285.029L340.336 284.051ZM329.707 275.511C329.562 274.179 329.893 273.023 330.7 272.045C331.53 271.063 332.723 270.487 334.281 270.318C335.839 270.148 337.118 270.454 338.117 271.236C339.138 272.016 339.722 273.072 339.867 274.404C340.01 275.713 339.666 276.859 338.836 277.84C338.029 278.819 336.847 279.393 335.289 279.563C333.731 279.733 332.441 279.428 331.42 278.648C330.421 277.866 329.85 276.821 329.707 275.511ZM371.922 307.544C371.838 306.776 371.56 306.109 371.087 305.544C370.614 304.979 369.786 304.509 368.603 304.136C367.44 303.737 365.762 303.429 363.568 303.211C361.627 303.011 359.822 302.694 358.152 302.259C356.483 301.824 355.026 301.24 353.781 300.508C352.533 299.753 351.518 298.824 350.736 297.721C349.973 296.594 349.507 295.251 349.337 293.693C349.172 292.18 349.345 290.722 349.854 289.319C350.361 287.893 351.18 286.604 352.311 285.453C353.44 284.279 354.864 283.301 356.584 282.52C358.301 281.716 360.277 281.192 362.512 280.948C365.628 280.609 368.359 280.825 370.705 281.598C373.073 282.368 374.953 283.579 376.344 285.232C377.733 286.863 378.547 288.785 378.789 290.997L369.848 291.972C369.742 291.001 369.42 290.145 368.883 289.404C368.367 288.66 367.633 288.101 366.678 287.725C365.721 287.327 364.553 287.203 363.176 287.353C361.934 287.488 360.907 287.806 360.093 288.306C359.302 288.803 358.727 289.403 358.37 290.104C358.012 290.806 357.876 291.552 357.963 292.342C358.027 292.929 358.197 293.447 358.475 293.897C358.772 294.321 359.213 294.696 359.797 295.02C360.38 295.345 361.152 295.615 362.112 295.83C363.095 296.043 364.291 296.221 365.7 296.365C368.491 296.609 370.952 297.072 373.082 297.753C375.233 298.41 376.964 299.409 378.275 300.751C379.587 302.093 380.367 303.905 380.615 306.185C380.792 307.811 380.605 309.339 380.053 310.77C379.498 312.178 378.609 313.452 377.385 314.59C376.161 315.729 374.654 316.681 372.864 317.447C371.072 318.191 369.013 318.69 366.687 318.943C363.323 319.31 360.413 319.021 357.957 318.078C355.499 317.112 353.571 315.769 352.172 314.048C350.771 312.305 349.962 310.428 349.743 308.419L358.311 307.485C358.534 308.9 359.042 309.998 359.835 310.78C360.628 311.562 361.577 312.087 362.68 312.355C363.803 312.598 364.963 312.654 366.159 312.524C367.514 312.376 368.634 312.071 369.521 311.609C370.405 311.124 371.049 310.54 371.454 309.856C371.857 309.15 372.013 308.379 371.922 307.544ZM401.905 277.341L402.606 283.775L381.609 286.064L380.908 279.629L401.905 277.341ZM385.548 270.008L394.523 269.03L398.346 304.115C398.465 305.199 398.702 306.018 399.06 306.574C399.417 307.129 399.901 307.476 400.51 307.615C401.119 307.754 401.83 307.779 402.643 307.691C403.23 307.627 403.768 307.534 404.257 307.412C404.747 307.29 405.157 307.177 405.488 307.072L406.253 313.774C405.535 314.104 404.71 314.399 403.779 314.661C402.871 314.92 401.83 315.113 400.656 315.241C398.646 315.46 396.848 315.313 395.262 314.801C393.673 314.266 392.377 313.276 391.374 311.832C390.369 310.365 389.727 308.356 389.449 305.805L385.548 270.008ZM417.348 275.657L421.342 312.301L412.367 313.279L408.374 276.636L417.348 275.657ZM406.72 267.118C406.574 265.786 406.905 264.63 407.712 263.651C408.542 262.67 409.736 262.094 411.294 261.924C412.852 261.755 414.13 262.061 415.129 262.843C416.151 263.623 416.734 264.678 416.88 266.01C417.022 267.32 416.679 268.465 415.849 269.447C415.042 270.426 413.859 271 412.302 271.17C410.744 271.34 409.454 271.035 408.432 270.255C407.433 269.473 406.862 268.427 406.72 267.118ZM444.219 303.365C445.484 303.227 446.585 302.856 447.525 302.251C448.464 301.646 449.178 300.86 449.666 299.893C450.178 298.923 450.391 297.838 450.305 296.636L458.738 295.717C458.964 298.206 458.506 300.506 457.366 302.618C456.225 304.73 454.589 306.484 452.456 307.882C450.344 309.254 447.899 310.092 445.122 310.395C442.3 310.702 439.788 310.496 437.584 309.777C435.381 309.058 433.488 307.927 431.903 306.387C430.342 304.843 429.089 302.992 428.145 300.833C427.224 298.672 426.625 296.316 426.347 293.764L426.229 292.681C425.951 290.129 426.029 287.699 426.462 285.39C426.919 283.079 427.743 281.001 428.936 279.158C430.151 277.312 431.757 275.801 433.753 274.623C435.75 273.446 438.148 272.705 440.947 272.4C443.905 272.078 446.564 272.371 448.925 273.278C451.308 274.184 453.246 275.617 454.739 277.579C456.255 279.539 457.191 281.939 457.546 284.778L449.113 285.697C448.925 284.393 448.504 283.251 447.849 282.271C447.194 281.292 446.335 280.54 445.273 280.016C444.21 279.492 442.968 279.308 441.546 279.463C440.033 279.628 438.803 280.082 437.856 280.824C436.931 281.565 436.247 282.519 435.803 283.687C435.38 284.83 435.129 286.091 435.051 287.47C434.992 288.824 435.043 290.235 435.203 291.703L435.322 292.786C435.484 294.276 435.741 295.688 436.091 297.02C436.465 298.35 436.981 299.528 437.641 300.552C438.322 301.552 439.193 302.314 440.255 302.838C441.34 303.359 442.661 303.535 444.219 303.365Z" fill="url(#paint1_linear_63_245)"/>
<path d="M542.678 299.077L532.044 300.236L531.314 292.914L541.881 291.762C544.748 291.449 547.084 290.555 548.888 289.079C550.689 287.581 551.956 285.581 552.689 283.079C553.419 280.555 553.601 277.611 553.234 274.247L552.957 271.707C552.674 269.11 552.142 266.85 551.361 264.924C550.58 262.999 549.563 261.419 548.309 260.185C547.077 258.949 545.622 258.068 543.943 257.543C542.264 257.017 540.385 256.868 538.308 257.094L527.268 258.298L526.467 250.949L537.507 249.745C540.804 249.386 543.867 249.612 546.697 250.423C549.549 251.231 552.082 252.566 554.295 254.427C556.528 256.262 558.332 258.556 559.706 261.308C561.102 264.057 561.993 267.204 562.379 270.749L562.649 273.221C563.033 276.743 562.84 280.008 562.072 283.016C561.323 285.999 560.056 288.627 558.27 290.901C556.507 293.172 554.309 295.011 551.675 296.417C549.041 297.824 546.042 298.71 542.678 299.077ZM531.885 250.358L537.259 299.668L527.946 300.683L522.572 251.373L531.885 250.358ZM568.899 278.057L568.821 277.346C568.529 274.659 568.643 272.145 569.164 269.803C569.684 267.439 570.586 265.342 571.871 263.511C573.157 261.681 574.81 260.187 576.832 259.03C578.851 257.85 581.215 257.113 583.924 256.818C586.679 256.517 589.169 256.726 591.394 257.443C593.64 258.135 595.588 259.236 597.237 260.747C598.887 262.258 600.22 264.111 601.236 266.308C602.25 268.482 602.903 270.913 603.196 273.599L603.273 274.311C603.564 276.975 603.449 279.489 602.93 281.853C602.409 284.194 601.506 286.292 600.223 288.145C598.938 289.976 597.284 291.469 595.263 292.626C593.242 293.783 590.865 294.511 588.133 294.809C585.424 295.104 582.946 294.905 580.7 294.214C578.455 293.522 576.507 292.42 574.857 290.909C573.205 289.376 571.872 287.522 570.859 285.348C569.842 283.152 569.189 280.721 568.899 278.057ZM577.762 276.371L577.84 277.083C578.014 278.686 578.336 280.17 578.805 281.535C579.273 282.9 579.893 284.078 580.663 285.068C581.434 286.058 582.371 286.801 583.476 287.297C584.601 287.769 585.898 287.924 587.365 287.764C588.81 287.607 590.02 287.178 590.995 286.478C591.967 285.755 592.722 284.827 593.262 283.695C593.823 282.56 594.186 281.275 594.349 279.841C594.513 278.407 594.507 276.888 594.333 275.285L594.255 274.574C594.083 272.993 593.764 271.532 593.297 270.189C592.829 268.824 592.198 267.647 591.405 266.66C590.632 265.648 589.682 264.894 588.554 264.4C587.447 263.881 586.159 263.702 584.692 263.862C583.247 264.019 582.04 264.471 581.07 265.216C580.098 265.939 579.343 266.878 578.807 268.033C578.268 269.165 577.916 270.449 577.753 271.883C577.587 273.295 577.59 274.791 577.762 276.371ZM625.078 253.018L625.779 259.452L604.782 261.741L604.081 255.306L625.078 253.018ZM608.721 245.685L617.695 244.707L621.519 279.793C621.637 280.876 621.875 281.696 622.233 282.251C622.59 282.806 623.074 283.153 623.683 283.292C624.292 283.431 625.003 283.457 625.816 283.368C626.403 283.304 626.941 283.211 627.43 283.089C627.919 282.967 628.33 282.854 628.661 282.75L629.426 289.451C628.708 289.781 627.883 290.076 626.952 290.338C626.044 290.597 625.002 290.79 623.828 290.918C621.819 291.137 620.021 290.99 618.435 290.478C616.846 289.943 615.55 288.953 614.547 287.509C613.542 286.042 612.9 284.033 612.622 281.482L608.721 245.685ZM644.266 279.095L649.259 250.382L654.948 249.762L654.303 259.565L649.155 287.473L644.244 288.008L644.266 279.095ZM636.796 251.741L645.865 278.99L647.36 287.668L641.704 288.285L628.092 252.689L636.796 251.741ZM665.396 276.45L668.292 248.308L676.962 247.363L671.405 285.048L665.749 285.664L665.396 276.45ZM655.829 249.666L666.792 276.366L668.831 285.328L663.92 285.863L652.813 259.727L650.105 250.29L655.829 249.666ZM682.69 265.655L682.613 264.944C682.32 262.257 682.435 259.743 682.956 257.402C683.475 255.038 684.377 252.94 685.663 251.11C686.948 249.279 688.602 247.785 690.623 246.628C692.642 245.449 695.006 244.711 697.716 244.416C700.47 244.116 702.96 244.324 705.186 245.041C707.432 245.733 709.379 246.834 711.029 248.345C712.679 249.856 714.012 251.71 715.028 253.906C716.041 256.08 716.695 258.511 716.988 261.198L717.065 261.909C717.355 264.573 717.241 267.087 716.722 269.451C716.2 271.793 715.298 273.89 714.015 275.743C712.73 277.574 711.076 279.068 709.055 280.225C707.033 281.382 704.657 282.109 701.925 282.407C699.215 282.702 696.738 282.504 694.492 281.812C692.246 281.12 690.299 280.019 688.649 278.508C686.997 276.974 685.664 275.121 684.65 272.946C683.634 270.75 682.981 268.319 682.69 265.655ZM691.554 263.97L691.631 264.681C691.806 266.284 692.128 267.768 692.596 269.133C693.065 270.499 693.684 271.676 694.455 272.666C695.225 273.656 696.163 274.399 697.268 274.895C698.393 275.367 699.689 275.522 701.157 275.363C702.602 275.205 703.812 274.776 704.786 274.076C705.758 273.353 706.514 272.426 707.053 271.293C707.615 270.158 707.977 268.873 708.141 267.439C708.305 266.005 708.299 264.486 708.124 262.883L708.047 262.172C707.874 260.592 707.555 259.13 707.089 257.787C706.62 256.422 705.99 255.246 705.197 254.258C704.424 253.246 703.474 252.493 702.346 251.999C701.238 251.48 699.951 251.3 698.483 251.46C697.038 251.618 695.831 252.069 694.861 252.814C693.889 253.537 693.135 254.476 692.598 255.631C692.059 256.764 691.708 258.047 691.544 259.481C691.378 260.893 691.381 262.389 691.554 263.97ZM731.286 249.016L734.464 278.175L725.524 279.149L721.53 242.506L729.997 241.583L731.286 249.016ZM741.587 240.08L742.36 248.426C741.853 248.39 741.281 248.384 740.644 248.407C740.03 248.429 739.451 248.469 738.909 248.528C737.532 248.678 736.345 249.001 735.348 249.498C734.349 249.973 733.538 250.598 732.914 251.374C732.313 252.148 731.887 253.063 731.637 254.118C731.384 255.151 731.304 256.302 731.396 257.571L729.44 257.544C729.187 255.219 729.189 253.037 729.446 250.998C729.704 248.96 730.203 247.146 730.944 245.558C731.685 243.969 732.688 242.695 733.954 241.734C735.24 240.749 736.775 240.159 738.559 239.965C739.055 239.91 739.591 239.898 740.165 239.927C740.76 239.93 741.234 239.981 741.587 240.08ZM753.785 223.398L759.458 275.451L750.517 276.426L744.844 224.373L753.785 223.398ZM778.426 236.305L764.427 255.959L756.747 265.671L753.146 259.039L758.902 249.913L767.622 237.482L778.426 236.305ZM773.275 273.945L760.07 258.113L765.399 251.672L783.639 272.816L773.275 273.945Z" fill="url(#paint2_linear_63_245)"/>
<path d="M884.769 235.989L886.862 255.192C886.24 256.196 885.21 257.325 883.77 258.579C882.353 259.83 880.445 260.986 878.048 262.047C875.648 263.085 872.642 263.801 869.03 264.195C865.891 264.537 862.967 264.33 860.258 263.574C857.546 262.796 855.142 261.493 853.046 259.665C850.951 257.838 849.235 255.512 847.899 252.687C846.564 249.863 845.69 246.565 845.279 242.795L844.925 239.544C844.514 235.773 844.623 232.369 845.251 229.33C845.902 226.289 847.009 223.656 848.571 221.429C850.156 219.201 852.143 217.419 854.534 216.085C856.947 214.748 859.711 213.91 862.827 213.57C867.004 213.115 870.511 213.43 873.347 214.514C876.207 215.596 878.491 217.266 880.199 219.524C881.905 221.76 883.108 224.416 883.809 227.493L874.733 228.482C874.297 226.793 873.637 225.346 872.752 224.14C871.864 222.912 870.692 222.011 869.236 221.439C867.8 220.841 865.998 220.661 863.831 220.897C862.002 221.096 860.427 221.634 859.106 222.509C857.785 223.384 856.725 224.562 855.927 226.042C855.129 227.523 854.592 229.306 854.317 231.392C854.064 233.476 854.081 235.827 854.366 238.446L854.728 241.765C855.016 244.407 855.543 246.725 856.309 248.721C857.072 250.694 858.038 252.325 859.206 253.614C860.395 254.878 861.785 255.789 863.377 256.346C864.988 256.879 866.765 257.039 868.706 256.828C870.467 256.636 871.908 256.33 873.027 255.911C874.167 255.467 875.063 254.993 875.716 254.487C876.369 253.982 876.866 253.505 877.205 253.057L876.198 243.812L866.41 244.878L865.668 238.071L884.769 235.989ZM912.209 259.489C909.432 259.791 906.888 259.612 904.577 258.95C902.266 258.288 900.244 257.24 898.512 255.807C896.799 254.349 895.409 252.593 894.339 250.539C893.29 248.46 892.631 246.179 892.36 243.695L892.212 242.34C891.905 239.518 892.032 236.911 892.594 234.52C893.153 232.106 894.087 229.982 895.395 228.149C896.703 226.316 898.346 224.835 900.325 223.705C902.304 222.576 904.546 221.874 907.052 221.601C909.649 221.318 911.988 221.509 914.071 222.173C916.151 222.814 917.944 223.852 919.448 225.288C920.952 226.723 922.164 228.51 923.082 230.649C923.998 232.765 924.601 235.155 924.892 237.819L925.301 241.578L896.583 244.708L895.911 238.545L915.824 236.374L915.751 235.697C915.55 234.28 915.138 233.011 914.513 231.891C913.886 230.749 913.015 229.884 911.9 229.297C910.783 228.688 909.4 228.473 907.752 228.653C906.42 228.798 905.289 229.218 904.36 229.913C903.45 230.584 902.726 231.485 902.187 232.618C901.668 233.725 901.329 235.018 901.171 236.498C901.012 237.977 901.029 239.598 901.221 241.359L901.368 242.713C901.536 244.249 901.894 245.649 902.443 246.914C903.015 248.177 903.76 249.249 904.679 250.132C905.617 250.989 906.692 251.626 907.902 252.042C909.133 252.433 910.493 252.548 911.984 252.385C913.857 252.181 915.511 251.635 916.945 250.748C918.399 249.836 919.612 248.595 920.584 247.027L925.597 251.21C924.953 252.423 924.032 253.62 922.836 254.801C921.662 255.98 920.197 256.996 918.439 257.85C916.679 258.682 914.603 259.228 912.209 259.489ZM929.449 238.762L929.372 238.051C929.079 235.364 929.193 232.85 929.715 230.508C930.234 228.144 931.136 226.047 932.422 224.216C933.707 222.386 935.361 220.892 937.382 219.735C939.401 218.555 941.765 217.818 944.475 217.523C947.229 217.222 949.719 217.431 951.945 218.148C954.191 218.84 956.138 219.941 957.788 221.452C959.438 222.963 960.77 224.816 961.787 227.013C962.8 229.187 963.454 231.618 963.746 234.304L963.824 235.015C964.114 237.68 964 240.194 963.481 242.558C962.959 244.899 962.057 246.997 960.774 248.85C959.488 250.681 957.835 252.174 955.814 253.331C953.792 254.488 951.416 255.216 948.684 255.513C945.974 255.809 943.497 255.61 941.251 254.918C939.005 254.227 937.058 253.125 935.408 251.614C933.756 250.081 932.423 248.227 931.409 246.053C930.393 243.856 929.74 241.426 929.449 238.762ZM938.313 237.076L938.39 237.787C938.565 239.39 938.887 240.875 939.355 242.24C939.824 243.605 940.443 244.783 941.214 245.773C941.984 246.763 942.922 247.506 944.027 248.002C945.152 248.473 946.448 248.629 947.916 248.469C949.361 248.312 950.571 247.883 951.545 247.183C952.517 246.46 953.273 245.532 953.812 244.4C954.374 243.265 954.736 241.98 954.9 240.546C955.063 239.112 955.058 237.593 954.883 235.99L954.806 235.279C954.633 233.698 954.314 232.237 953.848 230.894C953.379 229.529 952.749 228.352 951.956 227.365C951.183 226.352 950.232 225.599 949.105 225.105C947.997 224.586 946.71 224.407 945.242 224.567C943.797 224.724 942.59 225.176 941.62 225.921C940.648 226.644 939.894 227.583 939.357 228.738C938.818 229.87 938.467 231.154 938.303 232.588C938.137 234 938.14 235.496 938.313 237.076ZM978.015 222.16L981.189 251.285L972.249 252.26L968.255 215.616L976.688 214.697L978.015 222.16ZM977.728 231.787L974.985 232.086C974.707 229.534 974.756 227.153 975.131 224.942C975.53 222.728 976.252 220.764 977.299 219.051C978.344 217.315 979.71 215.91 981.398 214.835C983.108 213.758 985.148 213.09 987.519 212.831C989.167 212.652 990.707 212.735 992.138 213.082C993.567 213.406 994.835 214.033 995.942 214.963C997.068 215.869 997.992 217.116 998.714 218.705C999.433 220.271 999.917 222.195 1000.17 224.475L1002.83 248.927L993.889 249.901L991.324 226.364C991.137 224.648 990.742 223.332 990.14 222.415C989.56 221.496 988.798 220.894 987.853 220.608C986.905 220.3 985.799 220.215 984.535 220.353C983.135 220.506 981.958 220.919 981.003 221.595C980.069 222.245 979.327 223.091 978.779 224.133C978.252 225.173 977.9 226.342 977.722 227.641C977.566 228.937 977.568 230.319 977.728 231.787ZM999.831 227.699L996.214 228.778C995.985 226.473 996.066 224.282 996.457 222.206C996.845 220.108 997.544 218.238 998.553 216.598C999.582 214.932 1000.93 213.574 1002.6 212.524C1004.29 211.449 1006.29 210.785 1008.62 210.532C1010.42 210.335 1012.08 210.417 1013.58 210.779C1015.1 211.116 1016.44 211.781 1017.6 212.774C1018.76 213.745 1019.7 215.07 1020.43 216.749C1021.19 218.426 1021.7 220.518 1021.97 223.024L1024.54 246.561L1015.53 247.543L1012.96 223.972C1012.77 222.188 1012.37 220.849 1011.77 219.955C1011.19 219.058 1010.43 218.479 1009.49 218.216C1008.54 217.93 1007.46 217.854 1006.24 217.987C1005 218.122 1003.94 218.478 1003.07 219.053C1002.22 219.603 1001.52 220.318 1000.97 221.2C1000.45 222.079 1000.09 223.078 999.895 224.196C999.717 225.289 999.696 226.457 999.831 227.699ZM1049.1 244.57C1046.32 244.872 1043.78 244.693 1041.47 244.031C1039.15 243.369 1037.13 242.321 1035.4 240.888C1033.69 239.43 1032.3 237.674 1031.23 235.62C1030.18 233.541 1029.52 231.26 1029.25 228.776L1029.1 227.421C1028.79 224.599 1028.92 221.992 1029.48 219.601C1030.04 217.187 1030.98 215.063 1032.28 213.23C1033.59 211.397 1035.23 209.916 1037.21 208.786C1039.19 207.657 1041.43 206.955 1043.94 206.682C1046.54 206.399 1048.88 206.59 1050.96 207.254C1053.04 207.895 1054.83 208.933 1056.34 210.369C1057.84 211.804 1059.05 213.591 1059.97 215.73C1060.89 217.846 1061.49 220.236 1061.78 222.9L1062.19 226.659L1033.47 229.789L1032.8 223.626L1052.71 221.455L1052.64 220.778C1052.44 219.361 1052.03 218.092 1051.4 216.972C1050.77 215.83 1049.9 214.965 1048.79 214.378C1047.67 213.769 1046.29 213.554 1044.64 213.734C1043.31 213.879 1042.18 214.299 1041.25 214.994C1040.34 215.665 1039.61 216.566 1039.08 217.699C1038.56 218.806 1038.22 220.099 1038.06 221.579C1037.9 223.058 1037.92 224.679 1038.11 226.44L1038.26 227.794C1038.42 229.33 1038.78 230.73 1039.33 231.995C1039.9 233.258 1040.65 234.33 1041.57 235.213C1042.51 236.07 1043.58 236.707 1044.79 237.123C1046.02 237.514 1047.38 237.629 1048.87 237.466C1050.75 237.262 1052.4 236.716 1053.83 235.829C1055.29 234.917 1056.5 233.676 1057.47 232.108L1062.49 236.291C1061.84 237.504 1060.92 238.701 1059.72 239.882C1058.55 241.061 1057.09 242.077 1055.33 242.931C1053.57 243.763 1051.49 244.309 1049.1 244.57ZM1083.23 203.085L1083.93 209.52L1062.94 211.808L1062.23 205.374L1083.23 203.085ZM1066.87 195.752L1075.85 194.774L1079.67 229.86C1079.79 230.944 1080.03 231.763 1080.39 232.318C1080.74 232.873 1081.23 233.22 1081.84 233.36C1082.45 233.499 1083.16 233.524 1083.97 233.436C1084.56 233.372 1085.09 233.279 1085.58 233.157C1086.07 233.035 1086.48 232.922 1086.82 232.817L1087.58 239.519C1086.86 239.849 1086.04 240.144 1085.11 240.405C1084.2 240.664 1083.16 240.858 1081.98 240.986C1079.97 241.205 1078.18 241.058 1076.59 240.545C1075 240.01 1073.7 239.021 1072.7 237.577C1071.7 236.11 1071.05 234.101 1070.78 231.549L1066.87 195.752ZM1098.95 208.946L1102.13 238.105L1093.19 239.079L1089.19 202.436L1097.66 201.513L1098.95 208.946ZM1109.25 200.01L1110.02 208.356C1109.52 208.32 1108.94 208.313 1108.31 208.337C1107.69 208.358 1107.11 208.399 1106.57 208.458C1105.19 208.608 1104.01 208.931 1103.01 209.428C1102.01 209.903 1101.2 210.528 1100.58 211.304C1099.98 212.078 1099.55 212.993 1099.3 214.048C1099.05 215.081 1098.97 216.232 1099.06 217.501L1097.1 217.474C1096.85 215.149 1096.85 212.967 1097.11 210.928C1097.37 208.89 1097.87 207.076 1098.61 205.488C1099.35 203.899 1100.35 202.625 1101.62 201.664C1102.9 200.679 1104.44 200.089 1106.22 199.894C1106.72 199.84 1107.25 199.828 1107.83 199.856C1108.42 199.86 1108.9 199.911 1109.25 200.01ZM1123.67 198.678L1127.66 235.322L1118.69 236.3L1114.69 199.656L1123.67 198.678ZM1113.04 190.139C1112.89 188.806 1113.23 187.651 1114.03 186.672C1114.86 185.691 1116.06 185.115 1117.61 184.945C1119.17 184.775 1120.45 185.082 1121.45 185.864C1122.47 186.643 1123.05 187.699 1123.2 189.031C1123.34 190.341 1123 191.486 1122.17 192.468C1121.36 193.447 1120.18 194.021 1118.62 194.191C1117.06 194.361 1115.77 194.056 1114.75 193.276C1113.75 192.494 1113.18 191.448 1113.04 190.139ZM1150.54 226.386C1151.8 226.248 1152.91 225.877 1153.84 225.272C1154.78 224.667 1155.5 223.881 1155.99 222.914C1156.5 221.944 1156.71 220.859 1156.63 219.657L1165.06 218.738C1165.28 221.227 1164.83 223.527 1163.69 225.639C1162.55 227.751 1160.91 229.505 1158.78 230.903C1156.66 232.275 1154.22 233.113 1151.44 233.415C1148.62 233.723 1146.11 233.517 1143.9 232.798C1141.7 232.078 1139.81 230.948 1138.22 229.407C1136.66 227.864 1135.41 226.013 1134.47 223.854C1133.54 221.693 1132.95 219.337 1132.67 216.785L1132.55 215.702C1132.27 213.15 1132.35 210.72 1132.78 208.411C1133.24 206.1 1134.06 204.022 1135.26 202.179C1136.47 200.333 1138.08 198.821 1140.07 197.644C1142.07 196.467 1144.47 195.726 1147.27 195.421C1150.23 195.099 1152.88 195.391 1155.25 196.299C1157.63 197.205 1159.57 198.638 1161.06 200.6C1162.58 202.56 1163.51 204.959 1163.87 207.799L1155.43 208.718C1155.25 207.414 1154.82 206.272 1154.17 205.292C1153.51 204.313 1152.66 203.561 1151.59 203.037C1150.53 202.513 1149.29 202.329 1147.87 202.484C1146.35 202.648 1145.12 203.102 1144.18 203.845C1143.25 204.586 1142.57 205.54 1142.12 206.708C1141.7 207.85 1141.45 209.111 1141.37 210.491C1141.31 211.845 1141.36 213.256 1141.52 214.723L1141.64 215.807C1141.8 217.297 1142.06 218.709 1142.41 220.041C1142.79 221.371 1143.3 222.549 1143.96 223.573C1144.64 224.573 1145.51 225.335 1146.58 225.859C1147.66 226.38 1148.98 226.556 1150.54 226.386Z" fill="url(#paint3_linear_63_245)"/>
<circle cx="163.299" cy="315.119" r="4.66636" transform="rotate(-6.2199 163.299 315.119)" fill="url(#paint4_linear_63_245)"/>
<circle cx="495.872" cy="278.873" r="4.66636" transform="rotate(-6.2199 495.872 278.873)" fill="url(#paint5_linear_63_245)"/>
<circle cx="810.603" cy="244.571" r="4.66636" transform="rotate(-6.2199 810.603 244.571)" fill="url(#paint6_linear_63_245)"/>
<circle cx="1197.42" cy="202.414" r="4.66636" transform="rotate(-6.2199 1197.42 202.414)" fill="url(#paint7_linear_63_245)"/>
<rect x="-433.937" y="995.907" width="2577" height="104" transform="rotate(-39.0112 -433.937 995.907)" fill="#14182D"/>
<path d="M262.16 505.824L252.233 513.866L247.601 508.148L257.528 500.106C259.151 498.791 260.252 497.461 260.829 496.117C261.409 494.741 261.559 493.392 261.277 492.071C260.982 490.732 260.341 489.454 259.355 488.236C258.397 487.053 257.265 486.144 255.959 485.506C254.654 484.868 253.232 484.647 251.693 484.84C250.173 485.02 248.601 485.767 246.977 487.083L239.433 493.194L266.003 525.992L258.723 531.889L227.5 493.347L242.324 481.339C245.324 478.908 248.319 477.373 251.309 476.734C254.302 476.063 257.119 476.222 259.76 477.209C262.405 478.165 264.7 479.843 266.644 482.243C268.66 484.731 269.832 487.333 270.161 490.048C270.507 492.748 270.006 495.449 268.657 498.149C267.326 500.836 265.16 503.394 262.16 505.824ZM281.501 475.687L299.965 498.479L292.976 504.14L269.774 475.499L276.391 470.137L281.501 475.687ZM285.321 462.597L290.49 469.194C290.045 469.438 289.561 469.743 289.038 470.108C288.533 470.458 288.069 470.805 287.645 471.148C286.569 472.021 285.746 472.935 285.177 473.893C284.594 474.833 284.251 475.798 284.147 476.788C284.061 477.764 284.198 478.764 284.559 479.787C284.906 480.792 285.462 481.803 286.227 482.82L284.568 483.857C283.096 482.039 281.916 480.204 281.028 478.35C280.141 476.497 279.578 474.702 279.34 472.966C279.103 471.229 279.256 469.614 279.8 468.121C280.348 466.596 281.318 465.269 282.713 464.14C283.101 463.825 283.544 463.525 284.043 463.238C284.544 462.919 284.97 462.705 285.321 462.597ZM299.161 475.893L298.711 475.337C297.01 473.237 295.744 471.062 294.915 468.811C294.071 466.542 293.693 464.291 293.782 462.055C293.872 459.82 294.453 457.669 295.525 455.602C296.584 453.517 298.172 451.616 300.289 449.901C302.442 448.157 304.648 446.983 306.908 446.381C309.17 445.746 311.404 445.617 313.609 445.994C315.814 446.37 317.939 447.207 319.982 448.503C322.012 449.782 323.878 451.471 325.579 453.571L326.029 454.127C327.716 456.209 328.982 458.385 329.825 460.653C330.655 462.904 331.032 465.156 330.958 467.409C330.868 469.644 330.287 471.795 329.215 473.862C328.142 475.93 326.538 477.828 324.403 479.558C322.285 481.274 320.095 482.449 317.832 483.083C315.57 483.718 313.336 483.847 311.131 483.47C308.912 483.076 306.787 482.24 304.757 480.961C302.714 479.665 300.848 477.975 299.161 475.893ZM305.699 469.676L306.149 470.232C307.165 471.485 308.239 472.558 309.372 473.452C310.506 474.346 311.664 475 312.848 475.415C314.032 475.83 315.222 475.947 316.42 475.766C317.621 475.553 318.795 474.981 319.942 474.052C321.072 473.137 321.857 472.122 322.297 471.005C322.722 469.871 322.855 468.682 322.695 467.438C322.553 466.18 322.162 464.903 321.522 463.609C320.883 462.315 320.056 461.041 319.041 459.788L318.59 459.232C317.59 457.997 316.53 456.941 315.411 456.065C314.277 455.171 313.11 454.524 311.909 454.123C310.711 453.691 309.504 453.572 308.288 453.768C307.076 453.931 305.897 454.477 304.75 455.407C303.62 456.322 302.85 457.355 302.438 458.507C302.013 459.641 301.887 460.839 302.061 462.1C302.222 463.344 302.621 464.614 303.261 465.908C303.886 467.184 304.698 468.44 305.699 469.676ZM330.997 435.634L349.439 458.399L342.451 464.061L319.248 435.419L325.839 430.079L330.997 435.634ZM335.969 443.883L333.825 445.62C332.209 443.625 330.961 441.597 330.079 439.535C329.215 437.458 328.759 435.416 328.711 433.408C328.649 431.384 329.036 429.462 329.873 427.645C330.727 425.813 332.081 424.146 333.934 422.645C335.222 421.601 336.562 420.838 337.953 420.354C339.329 419.852 340.735 419.693 342.169 419.876C343.606 420.027 345.059 420.574 346.526 421.52C347.979 422.447 349.427 423.802 350.871 425.584L366.354 444.696L359.365 450.358L344.462 431.96C343.375 430.619 342.33 429.726 341.327 429.282C340.342 428.824 339.375 428.73 338.426 429.002C337.463 429.256 336.487 429.784 335.499 430.584C334.405 431.471 333.639 432.456 333.203 433.541C332.769 434.593 332.604 435.706 332.707 436.88C332.828 438.039 333.165 439.212 333.718 440.401C334.289 441.575 335.04 442.735 335.969 443.883ZM352.336 428.475L349.879 431.342C348.439 429.528 347.321 427.642 346.525 425.686C345.715 423.711 345.289 421.761 345.249 419.836C345.212 417.878 345.611 416.006 346.444 414.22C347.28 412.403 348.608 410.758 350.425 409.285C351.837 408.141 353.272 407.315 354.73 406.806C356.192 406.265 357.679 406.098 359.191 406.305C360.689 406.495 362.2 407.097 363.725 408.113C365.267 409.114 366.831 410.594 368.418 412.553L383.322 430.951L376.28 436.655L361.355 418.231C360.226 416.837 359.167 415.927 358.178 415.5C357.207 415.059 356.254 414.983 355.32 415.273C354.371 415.544 353.42 416.066 352.467 416.838C351.496 417.625 350.799 418.496 350.376 419.453C349.956 420.378 349.756 421.358 349.777 422.394C349.815 423.415 350.054 424.449 350.493 425.496C350.935 426.512 351.55 427.505 352.336 428.475ZM376.986 412.847L376.535 412.291C374.834 410.191 373.569 408.015 372.739 405.764C371.895 403.496 371.518 401.244 371.607 399.009C371.696 396.774 372.277 394.623 373.35 392.555C374.408 390.47 375.996 388.57 378.114 386.854C380.267 385.11 382.473 383.937 384.732 383.334C386.995 382.7 389.229 382.571 391.434 382.947C393.639 383.324 395.763 384.16 397.807 385.457C399.837 386.735 401.702 388.425 403.403 390.525L403.854 391.081C405.541 393.163 406.806 395.338 407.65 397.607C408.479 399.858 408.857 402.109 408.782 404.362C408.693 406.597 408.112 408.749 407.039 410.816C405.967 412.883 404.363 414.782 402.227 416.512C400.11 418.227 397.919 419.403 395.657 420.037C393.394 420.672 391.16 420.801 388.955 420.424C386.736 420.03 384.612 419.193 382.582 417.915C380.538 416.618 378.673 414.929 376.986 412.847ZM383.524 406.629L383.974 407.185C384.989 408.438 386.063 409.512 387.197 410.406C388.33 411.3 389.489 411.954 390.672 412.369C391.856 412.784 393.047 412.901 394.244 412.719C395.446 412.506 396.62 411.935 397.767 411.006C398.896 410.091 399.681 409.075 400.121 407.959C400.547 406.825 400.68 405.636 400.519 404.392C400.377 403.133 399.986 401.857 399.347 400.563C398.707 399.269 397.88 397.995 396.865 396.742L396.415 396.186C395.414 394.951 394.354 393.895 393.235 393.019C392.102 392.125 390.934 391.477 389.733 391.077C388.535 390.644 387.328 390.526 386.113 390.721C384.901 390.885 383.721 391.431 382.574 392.36C381.445 393.275 380.674 394.309 380.263 395.46C379.837 396.595 379.711 397.792 379.886 399.054C380.046 400.298 380.446 401.567 381.085 402.862C381.71 404.138 382.523 405.394 383.524 406.629Z" fill="url(#paint8_linear_63_245)"/>
<circle cx="420.031" cy="375.413" r="4.66636" transform="rotate(-39.0112 420.031 375.413)" fill="url(#paint9_linear_63_245)"/>
<path d="M464.482 340.94L454.556 348.981L449.924 343.264L459.85 335.222C461.474 333.907 462.574 332.577 463.151 331.233C463.731 329.857 463.881 328.508 463.6 327.186C463.304 325.848 462.663 324.569 461.677 323.352C460.719 322.169 459.587 321.259 458.282 320.622C456.976 319.984 455.554 319.762 454.016 319.956C452.495 320.136 450.923 320.883 449.3 322.198L441.755 328.31L468.325 361.108L461.045 367.005L429.822 328.463L444.646 316.454C447.646 314.024 450.641 312.489 453.631 311.85C456.624 311.179 459.441 311.337 462.083 312.325C464.728 313.281 467.022 314.959 468.966 317.359C470.982 319.847 472.154 322.448 472.483 325.163C472.83 327.864 472.328 330.565 470.979 333.265C469.648 335.951 467.482 338.509 464.482 340.94ZM483.823 310.803L502.287 333.594L495.299 339.256L472.096 310.614L478.714 305.253L483.823 310.803ZM487.643 297.712L492.813 304.31C492.367 304.554 491.883 304.858 491.36 305.223C490.855 305.574 490.391 305.921 489.967 306.264C488.891 307.136 488.068 308.051 487.5 309.009C486.917 309.949 486.573 310.914 486.469 311.904C486.383 312.88 486.52 313.879 486.881 314.902C487.228 315.908 487.784 316.919 488.549 317.935L486.89 318.972C485.418 317.155 484.238 315.319 483.35 313.466C482.463 311.613 481.9 309.818 481.663 308.082C481.425 306.345 481.578 304.73 482.122 303.237C482.67 301.712 483.641 300.385 485.035 299.255C485.423 298.941 485.866 298.64 486.365 298.353C486.867 298.035 487.293 297.821 487.643 297.712ZM501.483 311.009L501.033 310.453C499.332 308.353 498.066 306.177 497.237 303.926C496.393 301.658 496.016 299.406 496.105 297.171C496.194 294.936 496.775 292.785 497.847 290.717C498.906 288.632 500.494 286.732 502.612 285.016C504.765 283.272 506.971 282.099 509.23 281.496C511.493 280.862 513.726 280.733 515.931 281.109C518.136 281.486 520.261 282.322 522.305 283.619C524.334 284.897 526.2 286.587 527.901 288.687L528.351 289.243C530.038 291.325 531.304 293.5 532.148 295.769C532.977 298.02 533.355 300.271 533.28 302.524C533.191 304.759 532.61 306.911 531.537 308.978C530.464 311.045 528.86 312.944 526.725 314.674C524.607 316.389 522.417 317.565 520.155 318.199C517.892 318.834 515.658 318.963 513.453 318.586C511.234 318.192 509.109 317.355 507.08 316.077C505.036 314.78 503.17 313.091 501.483 311.009ZM508.021 304.791L508.472 305.347C509.487 306.6 510.561 307.674 511.694 308.568C512.828 309.462 513.986 310.116 515.17 310.531C516.354 310.946 517.545 311.063 518.742 310.881C519.943 310.668 521.118 310.097 522.265 309.168C523.394 308.253 524.179 307.237 524.619 306.121C525.045 304.987 525.177 303.798 525.017 302.554C524.875 301.295 524.484 300.019 523.845 298.725C523.205 297.431 522.378 296.157 521.363 294.904L520.913 294.348C519.912 293.113 518.852 292.057 517.733 291.181C516.6 290.287 515.432 289.639 514.231 289.239C513.033 288.806 511.826 288.688 510.611 288.883C509.399 289.047 508.219 289.593 507.072 290.522C505.943 291.437 505.172 292.471 504.761 293.622C504.335 294.757 504.209 295.954 504.384 297.216C504.544 298.46 504.944 299.729 505.583 301.024C506.208 302.3 507.021 303.556 508.021 304.791ZM533.319 270.75L551.761 293.515L544.773 299.176L521.57 270.535L528.161 265.195L533.319 270.75ZM538.291 278.998L536.147 280.735C534.531 278.741 533.283 276.713 532.401 274.65C531.537 272.574 531.081 270.531 531.034 268.524C530.971 266.499 531.359 264.578 532.195 262.76C533.05 260.928 534.403 259.262 536.256 257.761C537.544 256.717 538.884 255.953 540.275 255.47C541.652 254.968 543.057 254.809 544.491 254.991C545.929 255.142 547.381 255.69 548.848 256.635C550.301 257.563 551.749 258.918 553.193 260.7L568.676 279.812L561.688 285.473L546.784 267.076C545.697 265.735 544.653 264.842 543.65 264.398C542.664 263.939 541.697 263.846 540.748 264.118C539.785 264.372 538.809 264.899 537.821 265.7C536.727 266.586 535.962 267.572 535.525 268.656C535.091 269.709 534.926 270.822 535.029 271.995C535.15 273.154 535.487 274.328 536.04 275.517C536.612 276.691 537.362 277.851 538.291 278.998ZM554.658 263.591L552.202 266.458C550.761 264.643 549.643 262.758 548.847 260.801C548.037 258.827 547.612 256.877 547.571 254.951C547.535 252.994 547.933 251.122 548.766 249.336C549.603 247.518 550.93 245.873 552.747 244.401C554.159 243.257 555.594 242.431 557.052 241.922C558.514 241.381 560.001 241.214 561.513 241.421C563.011 241.61 564.522 242.213 566.047 243.229C567.589 244.23 569.153 245.71 570.74 247.669L585.644 266.066L578.603 271.771L563.677 253.347C562.548 251.953 561.489 251.042 560.5 250.616C559.529 250.175 558.576 250.099 557.642 250.388C556.693 250.66 555.742 251.182 554.789 251.954C553.818 252.74 553.121 253.612 552.698 254.569C552.278 255.493 552.078 256.474 552.099 257.509C552.137 258.531 552.376 259.565 552.815 260.612C553.257 261.627 553.872 262.62 554.658 263.591ZM579.308 247.962L578.858 247.406C577.156 245.306 575.891 243.131 575.061 240.88C574.217 238.612 573.84 236.36 573.929 234.125C574.018 231.89 574.599 229.738 575.672 227.671C576.73 225.586 578.318 223.686 580.436 221.97C582.589 220.226 584.795 219.053 587.054 218.45C589.317 217.815 591.551 217.686 593.756 218.063C595.961 218.44 598.085 219.276 600.129 220.572C602.159 221.851 604.024 223.54 605.726 225.64L606.176 226.196C607.863 228.279 609.128 230.454 609.972 232.723C610.802 234.973 611.179 237.225 611.104 239.478C611.015 241.713 610.434 243.864 609.362 245.932C608.289 247.999 606.685 249.898 604.549 251.628C602.432 253.343 600.242 254.518 597.979 255.153C595.716 255.787 593.483 255.916 591.278 255.54C589.058 255.145 586.934 254.309 584.904 253.03C582.86 251.734 580.995 250.045 579.308 247.962ZM585.846 241.745L586.296 242.301C587.311 243.554 588.385 244.627 589.519 245.521C590.652 246.415 591.811 247.07 592.995 247.485C594.178 247.9 595.369 248.016 596.567 247.835C597.768 247.622 598.942 247.051 600.089 246.122C601.218 245.207 602.003 244.191 602.443 243.075C602.869 241.94 603.002 240.751 602.842 239.507C602.699 238.249 602.308 236.973 601.669 235.679C601.03 234.384 600.203 233.111 599.188 231.858L598.737 231.302C597.736 230.066 596.677 229.011 595.557 228.134C594.424 227.24 593.257 226.593 592.055 226.193C590.857 225.76 589.651 225.642 588.435 225.837C587.223 226 586.044 226.547 584.896 227.476C583.767 228.391 582.997 229.424 582.585 230.576C582.159 231.71 582.034 232.908 582.208 234.17C582.368 235.414 582.768 236.683 583.407 237.977C584.032 239.254 584.845 240.51 585.846 241.745Z" fill="url(#paint10_linear_63_245)"/>
<circle cx="622.353" cy="210.528" r="4.66636" transform="rotate(-39.0112 622.353 210.528)" fill="url(#paint11_linear_63_245)"/>
<path d="M666.803 176.055L656.877 184.097L652.245 178.379L662.171 170.338C663.795 169.022 664.895 167.693 665.472 166.348C666.053 164.972 666.202 163.623 665.921 162.302C665.625 160.963 664.985 159.685 663.998 158.467C663.04 157.285 661.908 156.375 660.603 155.737C659.297 155.1 657.875 154.878 656.337 155.072C654.816 155.251 653.244 155.999 651.621 157.314L644.077 163.426L670.646 196.223L663.367 202.12L632.144 163.579L646.967 151.57C649.967 149.139 652.962 147.605 655.952 146.966C658.945 146.295 661.762 146.453 664.404 147.441C667.049 148.396 669.343 150.074 671.288 152.474C673.303 154.962 674.476 157.564 674.804 160.279C675.151 162.98 674.65 165.68 673.301 168.381C671.969 171.067 669.803 173.625 666.803 176.055ZM686.145 145.919L704.608 168.71L697.62 174.371L674.417 145.73L681.035 140.369L686.145 145.919ZM689.964 132.828L695.134 139.426C694.688 139.67 694.204 139.974 693.682 140.339C693.177 140.69 692.712 141.037 692.289 141.38C691.212 142.252 690.39 143.167 689.821 144.124C689.238 145.064 688.894 146.029 688.79 147.02C688.704 147.996 688.842 148.995 689.203 150.018C689.549 151.023 690.105 152.034 690.871 153.051L689.212 154.088C687.739 152.27 686.559 150.435 685.672 148.582C684.784 146.728 684.222 144.934 683.984 143.197C683.746 141.46 683.9 139.846 684.444 138.353C684.991 136.828 685.962 135.5 687.356 134.371C687.744 134.056 688.188 133.756 688.686 133.469C689.188 133.15 689.614 132.937 689.964 132.828ZM703.805 146.124L703.354 145.568C701.653 143.468 700.388 141.293 699.558 139.042C698.714 136.774 698.337 134.522 698.426 132.287C698.515 130.051 699.096 127.9 700.169 125.833C701.227 123.748 702.815 121.847 704.933 120.132C707.086 118.388 709.292 117.214 711.551 116.612C713.814 115.977 716.048 115.848 718.253 116.225C720.458 116.601 722.582 117.438 724.626 118.734C726.656 120.013 728.521 121.702 730.222 123.802L730.673 124.358C732.36 126.44 733.625 128.616 734.469 130.884C735.299 133.135 735.676 135.387 735.601 137.64C735.512 139.875 734.931 142.026 733.858 144.094C732.786 146.161 731.182 148.06 729.046 149.789C726.929 151.505 724.738 152.68 722.476 153.315C720.213 153.949 717.979 154.078 715.774 153.702C713.555 153.307 711.431 152.471 709.401 151.192C707.357 149.896 705.492 148.206 703.805 146.124ZM710.343 139.907L710.793 140.463C711.808 141.716 712.882 142.789 714.016 143.683C715.149 144.577 716.308 145.232 717.491 145.646C718.675 146.061 719.866 146.178 721.064 145.997C722.265 145.784 723.439 145.213 724.586 144.283C725.715 143.368 726.5 142.353 726.94 141.236C727.366 140.102 727.499 138.913 727.339 137.669C727.196 136.411 726.805 135.135 726.166 133.84C725.527 132.546 724.699 131.272 723.684 130.019L723.234 129.464C722.233 128.228 721.173 127.172 720.054 126.296C718.921 125.402 717.753 124.755 716.552 124.354C715.354 123.922 714.147 123.803 712.932 123.999C711.72 124.162 710.54 124.709 709.393 125.638C708.264 126.553 707.493 127.586 707.082 128.738C706.656 129.872 706.53 131.07 706.705 132.332C706.865 133.576 707.265 134.845 707.904 136.139C708.529 137.416 709.342 138.672 710.343 139.907ZM735.64 105.866L754.082 128.631L747.094 134.292L723.891 105.65L730.483 100.311L735.64 105.866ZM740.612 114.114L738.468 115.851C736.853 113.857 735.604 111.828 734.723 109.766C733.859 107.689 733.403 105.647 733.355 103.64C733.293 101.615 733.68 99.6934 734.517 97.8758C735.371 96.0438 736.724 94.3773 738.577 92.8762C739.866 91.8326 741.205 91.0688 742.596 90.585C743.973 90.0835 745.378 89.9242 746.812 90.1069C748.25 90.2577 749.702 90.8057 751.169 91.7508C752.622 92.6783 754.071 94.0333 755.515 95.8156L770.997 114.928L764.009 120.589L749.105 102.192C748.019 100.85 746.974 99.9577 745.971 99.5134C744.986 99.0548 744.019 98.9614 743.07 99.2332C742.106 99.4874 741.131 100.015 740.142 100.815C739.048 101.702 738.283 102.687 737.846 103.772C737.413 104.824 737.248 105.937 737.351 107.111C737.471 108.27 737.808 109.444 738.362 110.632C738.933 111.806 739.683 112.967 740.612 114.114ZM756.979 98.7063L754.523 101.573C753.082 99.7588 751.964 97.8734 751.168 95.9168C750.358 93.9425 749.933 91.9925 749.893 90.0667C749.856 88.109 750.254 86.2373 751.087 84.4516C751.924 82.634 753.251 80.9889 755.069 79.5164C756.481 78.3727 757.916 77.5463 759.374 77.0372C760.835 76.4962 762.322 76.3293 763.835 76.5364C765.333 76.7258 766.844 77.3284 768.368 78.3441C769.91 79.3456 771.475 80.8257 773.061 82.7845L787.965 101.182L780.924 106.886L765.999 88.4623C764.869 87.0681 763.81 86.1577 762.822 85.7311C761.851 85.2901 760.898 85.2143 759.963 85.5038C759.014 85.7757 758.063 86.2976 757.11 87.0696C756.14 87.8559 755.443 88.7274 755.019 89.6841C754.599 90.6089 754.4 91.5891 754.42 92.6247C754.458 93.646 754.697 94.6803 755.136 95.7275C755.579 96.7428 756.193 97.7357 756.979 98.7063ZM781.629 83.0778L781.179 82.5219C779.478 80.4219 778.212 78.2465 777.383 75.9957C776.539 73.7273 776.161 71.4755 776.25 69.2403C776.34 67.0052 776.92 64.8539 777.993 62.7865C779.052 60.7015 780.64 58.8012 782.757 57.0856C784.91 55.3415 787.116 54.1681 789.376 53.5654C791.638 52.9308 793.872 52.8019 796.077 53.1785C798.282 53.5552 800.407 54.3916 802.45 55.6879C804.48 56.9666 806.346 58.6559 808.047 60.756L808.497 61.3118C810.184 63.3942 811.45 65.5696 812.293 67.8381C813.123 70.0889 813.5 72.3407 813.426 74.5935C813.336 76.8286 812.755 78.9799 811.683 81.0473C810.61 83.1147 809.006 85.0133 806.871 86.7431C804.753 88.4586 802.563 89.6337 800.3 90.2683C798.038 90.9029 795.804 91.0319 793.599 90.6553C791.38 90.261 789.255 89.4245 787.225 88.1458C785.182 86.8495 783.316 85.1602 781.629 83.0778ZM788.167 76.8606L788.617 77.4165C789.633 78.6695 790.707 79.7429 791.84 80.6369C792.974 81.5309 794.132 82.1853 795.316 82.6002C796.5 83.015 797.69 83.1318 798.888 82.9507C800.089 82.7376 801.263 82.1664 802.41 81.2372C803.54 80.3222 804.325 79.3065 804.765 78.19C805.19 77.0559 805.323 75.8669 805.163 74.6229C805.021 73.3646 804.63 72.0883 803.99 70.794C803.351 69.4997 802.524 68.2261 801.509 66.9731L801.058 66.4173C800.058 65.1819 798.998 64.1261 797.879 63.2498C796.745 62.3558 795.578 61.7085 794.377 61.308C793.179 60.8755 791.972 60.757 790.756 60.9525C789.544 61.116 788.365 61.6623 787.218 62.5916C786.088 63.5065 785.318 64.5399 784.906 65.6916C784.481 66.8258 784.355 68.0236 784.529 69.2853C784.69 70.5293 785.089 71.7984 785.729 73.0927C786.354 74.3694 787.166 75.6253 788.167 76.8606Z" fill="url(#paint12_linear_63_245)"/>
<circle cx="824.675" cy="45.6438" r="4.66636" transform="rotate(-39.0112 824.675 45.6438)" fill="url(#paint13_linear_63_245)"/>
<path d="M869.126 11.1708L859.199 19.2124L854.567 13.4947L864.494 5.45309C866.117 4.13784 867.218 2.80806 867.795 1.46376C868.375 0.0875133 868.525 -1.26126 868.243 -2.58256C867.948 -3.92151 867.307 -5.19982 866.32 -6.41748C865.362 -7.59985 864.231 -8.5098 862.925 -9.14735C861.619 -9.78489 860.198 -10.0067 858.659 -9.81284C857.139 -9.63326 855.567 -8.88585 853.943 -7.57059L846.399 -1.45897L872.968 31.3385L865.689 37.2357L834.466 -1.30596L849.29 -13.3148C852.29 -15.7451 855.285 -17.2798 858.274 -17.9189C861.267 -18.5899 864.085 -18.4316 866.726 -17.444C869.371 -16.4884 871.666 -14.8105 873.61 -12.4105C875.626 -9.92223 876.798 -7.32061 877.127 -4.60563C877.473 -1.90495 876.972 0.795612 875.623 3.49605C874.291 6.1822 872.126 8.74045 869.126 11.1708ZM888.467 -18.966L906.931 3.82543L899.942 9.48673L876.74 -19.1548L883.357 -24.5159L888.467 -18.966ZM892.287 -32.0566L897.456 -25.4589C897.011 -25.215 896.527 -24.9105 896.004 -24.5456C895.499 -24.1948 895.035 -23.8479 894.611 -23.5048C893.534 -22.6328 892.712 -21.7179 892.143 -20.7603C891.56 -19.8203 891.217 -18.8552 891.113 -17.8649C891.027 -16.889 891.164 -15.8896 891.525 -14.8667C891.872 -13.8615 892.428 -12.8505 893.193 -11.8336L891.534 -10.7966C890.061 -12.6143 888.881 -14.4497 887.994 -16.3029C887.106 -18.1561 886.544 -19.9509 886.306 -21.6875C886.069 -23.4241 886.222 -25.0389 886.766 -26.532C887.313 -28.057 888.284 -29.3842 889.678 -30.5136C890.067 -30.8281 890.51 -31.1288 891.008 -31.4156C891.51 -31.7343 891.936 -31.948 892.287 -32.0566ZM906.127 -18.7604L905.677 -19.3163C903.975 -21.4163 902.71 -23.5918 901.88 -25.8426C901.036 -28.111 900.659 -30.3628 900.748 -32.5979C900.837 -34.8331 901.418 -36.9844 902.491 -39.0517C903.549 -41.1368 905.137 -43.0371 907.255 -44.7526C909.408 -46.4967 911.614 -47.6701 913.874 -48.2728C916.136 -48.9074 918.37 -49.0364 920.575 -48.6597C922.78 -48.2831 924.904 -47.4466 926.948 -46.1503C928.978 -44.8717 930.843 -43.1823 932.545 -41.0823L932.995 -40.5264C934.682 -38.444 935.947 -36.2686 936.791 -34.0002C937.621 -31.7494 937.998 -29.4976 937.923 -27.2448C937.834 -25.0096 937.253 -22.8584 936.181 -20.791C935.108 -18.7236 933.504 -16.825 931.369 -15.0951C929.251 -13.3796 927.061 -12.2045 924.798 -11.5699C922.535 -10.9353 920.302 -10.8063 918.097 -11.183C915.877 -11.5773 913.753 -12.4138 911.723 -13.6924C909.679 -14.9887 907.814 -16.6781 906.127 -18.7604ZM912.665 -24.9776L913.115 -24.4217C914.13 -23.1688 915.205 -22.0953 916.338 -21.2013C917.471 -20.3073 918.63 -19.6529 919.814 -19.2381C920.997 -18.8233 922.188 -18.7064 923.386 -18.8876C924.587 -19.1007 925.761 -19.6718 926.908 -20.6011C928.038 -21.516 928.822 -22.5318 929.262 -23.6482C929.688 -24.7823 929.821 -25.9714 929.661 -27.2154C929.518 -28.4737 929.127 -29.75 928.488 -31.0443C927.849 -32.3385 927.022 -33.6122 926.007 -34.8651L925.556 -35.421C924.556 -36.6563 923.496 -37.7121 922.377 -38.5885C921.243 -39.4824 920.076 -40.1297 918.874 -40.5302C917.676 -40.9627 916.47 -41.0812 915.254 -40.8858C914.042 -40.7223 912.863 -40.1759 911.716 -39.2467C910.586 -38.3317 909.816 -37.2983 909.404 -36.1466C908.978 -35.0125 908.853 -33.8146 909.027 -32.553C909.187 -31.3089 909.587 -30.0398 910.226 -28.7455C910.851 -27.4689 911.664 -26.2129 912.665 -24.9776ZM937.963 -59.019L956.405 -36.254L949.416 -30.5927L926.214 -59.2342L932.805 -64.5738L937.963 -59.019ZM942.935 -50.7708L940.79 -49.0338C939.175 -51.0279 937.926 -53.0562 937.045 -55.1187C936.181 -57.1955 935.725 -59.2376 935.677 -61.2449C935.615 -63.2698 936.002 -65.1911 936.839 -67.0088C937.693 -68.8407 939.047 -70.5072 940.9 -72.0083C942.188 -73.0519 943.528 -73.8157 944.919 -74.2995C946.295 -74.801 947.701 -74.9603 949.135 -74.7776C950.572 -74.6268 952.024 -74.0788 953.492 -73.1337C954.945 -72.2062 956.393 -70.8513 957.837 -69.0689L973.32 -49.9569L966.331 -44.2956L951.427 -62.6929C950.341 -64.0341 949.296 -64.9268 948.293 -65.3711C947.308 -65.8298 946.341 -65.9231 945.392 -65.6513C944.429 -65.3971 943.453 -64.8697 942.465 -64.0691C941.371 -63.1828 940.605 -62.1973 940.168 -61.1128C939.735 -60.0602 939.57 -58.9472 939.673 -57.7738C939.793 -56.6147 940.13 -55.4409 940.684 -54.2525C941.255 -53.0784 942.005 -51.9179 942.935 -50.7708ZM959.302 -66.1782L956.845 -63.3114C955.405 -65.1257 954.286 -67.0111 953.491 -68.9677C952.68 -70.942 952.255 -72.892 952.215 -74.8178C952.178 -76.7755 952.576 -78.6472 953.41 -80.4329C954.246 -82.2505 955.573 -83.8956 957.391 -85.3681C958.803 -86.5118 960.238 -87.3382 961.696 -87.8473C963.158 -88.3883 964.645 -88.5553 966.157 -88.3482C967.655 -88.1587 969.166 -87.5561 970.69 -86.5404C972.232 -85.539 973.797 -84.0588 975.384 -82.1L990.287 -63.7027L983.246 -57.9985L968.321 -76.4223C967.192 -77.8164 966.133 -78.7268 965.144 -79.1535C964.173 -79.5944 963.22 -79.6702 962.285 -79.3807C961.336 -79.1088 960.385 -78.5869 959.433 -77.8149C958.462 -77.0286 957.765 -76.1571 957.342 -75.2004C956.922 -74.2756 956.722 -73.2954 956.743 -72.2598C956.781 -71.2385 957.019 -70.2042 957.459 -69.157C957.901 -68.1417 958.515 -67.1488 959.302 -66.1782ZM983.951 -81.8067L983.501 -82.3626C981.8 -84.4626 980.534 -86.638 979.705 -88.8888C978.861 -91.1573 978.484 -93.4091 978.573 -95.6442C978.662 -97.8794 979.243 -100.031 980.315 -102.098C981.374 -104.183 982.962 -106.083 985.08 -107.799C987.233 -109.543 989.439 -110.716 991.698 -111.319C993.961 -111.954 996.194 -112.083 998.399 -111.706C1000.6 -111.329 1002.73 -110.493 1004.77 -109.197C1006.8 -107.918 1008.67 -106.229 1010.37 -104.129L1010.82 -103.573C1012.51 -101.49 1013.77 -99.3149 1014.62 -97.0464C1015.45 -94.7956 1015.82 -92.5438 1015.75 -90.2911C1015.66 -88.0559 1015.08 -85.9046 1014.01 -83.8373C1012.93 -81.7699 1011.33 -79.8713 1009.19 -78.1414C1007.08 -76.4259 1004.89 -75.2508 1002.62 -74.6162C1000.36 -73.9816 998.126 -73.8526 995.921 -74.2293C993.702 -74.6236 991.577 -75.46 989.548 -76.7387C987.504 -78.035 985.638 -79.7243 983.951 -81.8067ZM990.489 -88.0239L990.94 -87.468C991.955 -86.215 993.029 -85.1416 994.162 -84.2476C995.296 -83.3536 996.454 -82.6992 997.638 -82.2844C998.822 -81.8695 1000.01 -81.7527 1001.21 -81.9338C1002.41 -82.1469 1003.59 -82.7181 1004.73 -83.6474C1005.86 -84.5623 1006.65 -85.578 1007.09 -86.6945C1007.51 -87.8286 1007.65 -89.0176 1007.49 -90.2617C1007.34 -91.52 1006.95 -92.7963 1006.31 -94.0905C1005.67 -95.3848 1004.85 -96.6584 1003.83 -97.9114L1003.38 -98.4673C1002.38 -99.7026 1001.32 -100.758 1000.2 -101.635C999.068 -102.529 997.9 -103.176 996.699 -103.577C995.501 -104.009 994.294 -104.128 993.079 -103.932C991.867 -103.769 990.687 -103.222 989.54 -102.293C988.411 -101.378 987.64 -100.345 987.229 -99.1929C986.803 -98.0588 986.677 -96.8609 986.852 -95.5992C987.012 -94.3552 987.412 -93.0861 988.051 -91.7918C988.676 -90.5152 989.489 -89.2592 990.489 -88.0239Z" fill="url(#paint14_linear_63_245)"/>
</g>
<defs>
<linearGradient id="paint0_linear_63_245" x1="-41.487" y1="297.358" x2="-220.268" y2="329.538" gradientUnits="userSpaceOnUse">
<stop stop-color="#C7C5D2" stop-opacity="0.69"/>
<stop offset="0.44" stop-color="#14182D"/>
<stop offset="1" stop-color="#14182D" stop-opacity="0.64"/>
</linearGradient>
<linearGradient id="paint1_linear_63_245" x1="321.294" y1="257.82" x2="178.429" y2="281.458" gradientUnits="userSpaceOnUse">
<stop stop-color="#C7C5D2" stop-opacity="0.69"/>
<stop offset="0.44" stop-color="#14182D"/>
<stop offset="1" stop-color="#14182D" stop-opacity="0.64"/>
</linearGradient>
<linearGradient id="paint2_linear_63_245" x1="646.425" y1="222.385" x2="507.743" y2="245.098" gradientUnits="userSpaceOnUse">
<stop stop-color="#C7C5D2" stop-opacity="0.69"/>
<stop offset="0.44" stop-color="#14182D"/>
<stop offset="1" stop-color="#14182D" stop-opacity="0.64"/>
</linearGradient>
<linearGradient id="paint3_linear_63_245" x1="999.367" y1="183.919" x2="827.329" y2="214.414" gradientUnits="userSpaceOnUse">
<stop stop-color="#C7C5D2" stop-opacity="0.69"/>
<stop offset="0.44" stop-color="#14182D"/>
<stop offset="1" stop-color="#14182D" stop-opacity="0.64"/>
</linearGradient>
<linearGradient id="paint4_linear_63_245" x1="163.299" y1="310.452" x2="158.287" y2="310.537" gradientUnits="userSpaceOnUse">
<stop stop-color="#C7C5D2" stop-opacity="0.69"/>
<stop offset="0.44" stop-color="#14182D"/>
<stop offset="1" stop-color="#14182D" stop-opacity="0.64"/>
</linearGradient>
<linearGradient id="paint5_linear_63_245" x1="495.872" y1="274.206" x2="490.86" y2="274.291" gradientUnits="userSpaceOnUse">
<stop stop-color="#C7C5D2" stop-opacity="0.69"/>
<stop offset="0.44" stop-color="#14182D"/>
<stop offset="1" stop-color="#14182D" stop-opacity="0.64"/>
</linearGradient>
<linearGradient id="paint6_linear_63_245" x1="810.603" y1="239.905" x2="805.592" y2="239.989" gradientUnits="userSpaceOnUse">
<stop stop-color="#C7C5D2" stop-opacity="0.69"/>
<stop offset="0.44" stop-color="#14182D"/>
<stop offset="1" stop-color="#14182D" stop-opacity="0.64"/>
</linearGradient>
<linearGradient id="paint7_linear_63_245" x1="1197.42" y1="197.748" x2="1192.4" y2="197.832" gradientUnits="userSpaceOnUse">
<stop stop-color="#C7C5D2" stop-opacity="0.69"/>
<stop offset="0.44" stop-color="#14182D"/>
<stop offset="1" stop-color="#14182D" stop-opacity="0.64"/>
</linearGradient>
<linearGradient id="paint8_linear_63_245" x1="295.327" y1="418.583" x2="211.284" y2="492.859" gradientUnits="userSpaceOnUse">
<stop stop-color="#D8D3FF" stop-opacity="0.69"/>
<stop offset="0.44" stop-color="white"/>
<stop offset="1" stop-color="#CFD3E9" stop-opacity="0.64"/>
</linearGradient>
<linearGradient id="paint9_linear_63_245" x1="420.031" y1="370.747" x2="415.019" y2="370.831" gradientUnits="userSpaceOnUse">
<stop stop-color="#D8D3FF" stop-opacity="0.69"/>
<stop offset="0.44" stop-color="white"/>
<stop offset="1" stop-color="#CFD3E9" stop-opacity="0.64"/>
</linearGradient>
<linearGradient id="paint10_linear_63_245" x1="497.649" y1="253.699" x2="413.606" y2="327.975" gradientUnits="userSpaceOnUse">
<stop stop-color="#D8D3FF" stop-opacity="0.69"/>
<stop offset="0.44" stop-color="white"/>
<stop offset="1" stop-color="#CFD3E9" stop-opacity="0.64"/>
</linearGradient>
<linearGradient id="paint11_linear_63_245" x1="622.353" y1="205.862" x2="617.342" y2="205.946" gradientUnits="userSpaceOnUse">
<stop stop-color="#D8D3FF" stop-opacity="0.69"/>
<stop offset="0.44" stop-color="white"/>
<stop offset="1" stop-color="#CFD3E9" stop-opacity="0.64"/>
</linearGradient>
<linearGradient id="paint12_linear_63_245" x1="699.97" y1="88.8146" x2="615.928" y2="163.091" gradientUnits="userSpaceOnUse">
<stop stop-color="#D8D3FF" stop-opacity="0.69"/>
<stop offset="0.44" stop-color="white"/>
<stop offset="1" stop-color="#CFD3E9" stop-opacity="0.64"/>
</linearGradient>
<linearGradient id="paint13_linear_63_245" x1="824.675" y1="40.9775" x2="819.663" y2="41.0619" gradientUnits="userSpaceOnUse">
<stop stop-color="#D8D3FF" stop-opacity="0.69"/>
<stop offset="0.44" stop-color="white"/>
<stop offset="1" stop-color="#CFD3E9" stop-opacity="0.64"/>
</linearGradient>
<linearGradient id="paint14_linear_63_245" x1="902.293" y1="-76.07" x2="818.25" y2="-1.794" gradientUnits="userSpaceOnUse">
<stop stop-color="#D8D3FF" stop-opacity="0.69"/>
<stop offset="0.44" stop-color="white"/>
<stop offset="1" stop-color="#CFD3E9" stop-opacity="0.64"/>
</linearGradient>
</defs>
</svg>
