<svg width="35" height="35" viewBox="0 0 35 35" fill="none" xmlns="http://www.w3.org/2000/svg">
<circle cx="17.5" cy="17.5" r="17.5" fill="#14182D"/>
<path d="M17.5 4.90625C15.0092 4.90625 12.5743 5.64486 10.5033 7.02868C8.43226 8.4125 6.81809 10.3794 5.8649 12.6806C4.91171 14.9818 4.66231 17.514 5.14824 19.9569C5.63417 22.3999 6.83361 24.6439 8.59488 26.4051C10.3561 28.1664 12.6001 29.3658 15.0431 29.8518C17.486 30.3377 20.0182 30.0883 22.3194 29.1351C24.6206 28.1819 26.5875 26.5677 27.9713 24.4967C29.3551 22.4257 30.0938 19.9908 30.0938 17.5C30.0902 14.161 28.7623 10.9598 26.4012 8.59877C24.0402 6.23775 20.839 4.90978 17.5 4.90625ZM17.5 25.25C17.2126 25.25 16.9317 25.1648 16.6927 25.0051C16.4537 24.8454 16.2675 24.6185 16.1575 24.353C16.0475 24.0874 16.0187 23.7953 16.0748 23.5134C16.1309 23.2315 16.2693 22.9726 16.4725 22.7694C16.6757 22.5661 16.9346 22.4277 17.2165 22.3717C17.4984 22.3156 17.7906 22.3444 18.0561 22.4544C18.3216 22.5643 18.5486 22.7506 18.7082 22.9896C18.8679 23.2285 18.9531 23.5095 18.9531 23.7969C18.9531 24.1823 18.8 24.5519 18.5275 24.8244C18.255 25.0969 17.8854 25.25 17.5 25.25ZM18.4688 19.3503V19.4375C18.4688 19.6944 18.3667 19.9408 18.185 20.1225C18.0033 20.3042 17.7569 20.4062 17.5 20.4062C17.2431 20.4062 16.9967 20.3042 16.815 20.1225C16.6333 19.9408 16.5313 19.6944 16.5313 19.4375V18.4687C16.5313 18.2118 16.6333 17.9654 16.815 17.7837C16.9967 17.6021 17.2431 17.5 17.5 17.5C19.1021 17.5 20.4063 16.4102 20.4063 15.0781C20.4063 13.7461 19.1021 12.6562 17.5 12.6562C15.8979 12.6562 14.5938 13.7461 14.5938 15.0781V15.5625C14.5938 15.8194 14.4917 16.0658 14.31 16.2475C14.1283 16.4292 13.8819 16.5312 13.625 16.5312C13.3681 16.5312 13.1217 16.4292 12.94 16.2475C12.7583 16.0658 12.6563 15.8194 12.6563 15.5625V15.0781C12.6563 12.6744 14.8287 10.7187 17.5 10.7187C20.1713 10.7187 22.3438 12.6744 22.3438 15.0781C22.3438 17.1827 20.6775 18.9446 18.4688 19.3503Z" fill="white"/>
</svg>
