<svg width="24" height="24" viewBox="0 0 24 24" fill="none" xmlns="http://www.w3.org/2000/svg">
<path fill-rule="evenodd" clip-rule="evenodd" d="M6 6C5.46957 6 4.96086 6.21071 4.58579 6.58579C4.21071 6.96086 4 7.46957 4 8V11C4 12.1 4.9 13 6 13H9C9 13.7956 8.68393 14.5587 8.12132 15.1213C7.55871 15.6839 6.79565 16 6 16H5C4.73478 16 4.48043 16.1054 4.29289 16.2929C4.10536 16.4804 4 16.7348 4 17C4 17.2652 4.10536 17.5196 4.29289 17.7071C4.48043 17.8946 4.73478 18 5 18H6C7.32608 18 8.59785 17.4732 9.53553 16.5355C10.4732 15.5979 11 14.3261 11 13V8C11 7.46957 10.7893 6.96086 10.4142 6.58579C10.0391 6.21071 9.53043 6 9 6H6ZM15 6C14.4696 6 13.9609 6.21071 13.5858 6.58579C13.2107 6.96086 13 7.46957 13 8V11C13 12.1 13.9 13 15 13H18C18 13.7956 17.6839 14.5587 17.1213 15.1213C16.5587 15.6839 15.7956 16 15 16H14C13.7348 16 13.4804 16.1054 13.2929 16.2929C13.1054 16.4804 13 16.7348 13 17C13 17.2652 13.1054 17.5196 13.2929 17.7071C13.4804 17.8946 13.7348 18 14 18H15C16.3261 18 17.5979 17.4732 18.5355 16.5355C19.4732 15.5979 20 14.3261 20 13V8C20 7.46957 19.7893 6.96086 19.4142 6.58579C19.0391 6.21071 18.5304 6 18 6H15Z" fill="white"/>
</svg>
