<svg width="88" height="16" viewBox="0 0 88 16" fill="none" xmlns="http://www.w3.org/2000/svg">
<path d="M15.3668 6.9172L12.1957 9.6847L13.1456 13.805C13.1959 14.0204 13.1816 14.2458 13.1044 14.4531C13.0272 14.6604 12.8907 14.8404 12.7118 14.9705C12.5329 15.1006 12.3197 15.1751 12.0987 15.1846C11.8777 15.1942 11.6588 15.1384 11.4694 15.0242L7.87572 12.8445L4.28978 15.0242C4.10034 15.1384 3.88144 15.1942 3.66047 15.1846C3.43949 15.1751 3.22623 15.1006 3.04736 14.9705C2.86848 14.8404 2.73193 14.6604 2.65477 14.4531C2.57761 14.2458 2.56326 14.0204 2.61353 13.805L3.56205 9.68892L0.39025 6.9172C0.22249 6.77252 0.101183 6.58152 0.0415393 6.36817C-0.0181041 6.15481 -0.0134283 5.9286 0.0549803 5.71789C0.123389 5.50718 0.252485 5.32136 0.42608 5.18373C0.599675 5.0461 0.810041 4.96279 1.0308 4.94423L5.21158 4.58212L6.84353 0.689625C6.92875 0.485379 7.0725 0.310913 7.25668 0.188197C7.44085 0.0654807 7.65722 0 7.87853 0C8.09984 0 8.31621 0.0654807 8.50039 0.188197C8.68456 0.310913 8.82831 0.485379 8.91353 0.689625L10.5504 4.58212L14.7298 4.94423C14.9505 4.96279 15.1609 5.0461 15.3345 5.18373C15.5081 5.32136 15.6372 5.50718 15.7056 5.71789C15.774 5.9286 15.7787 6.15481 15.719 6.36817C15.6594 6.58152 15.5381 6.77252 15.3703 6.9172H15.3668Z" fill="white"/>
<path d="M33.3668 6.9172L30.1957 9.6847L31.1456 13.805C31.1959 14.0204 31.1816 14.2458 31.1044 14.4531C31.0272 14.6604 30.8907 14.8404 30.7118 14.9705C30.5329 15.1006 30.3197 15.1751 30.0987 15.1846C29.8777 15.1942 29.6588 15.1384 29.4694 15.0242L25.8757 12.8445L22.2898 15.0242C22.1003 15.1384 21.8814 15.1942 21.6605 15.1846C21.4395 15.1751 21.2262 15.1006 21.0474 14.9705C20.8685 14.8404 20.7319 14.6604 20.6548 14.4531C20.5776 14.2458 20.5633 14.0204 20.6135 13.805L21.562 9.68892L18.3902 6.9172C18.2225 6.77252 18.1012 6.58152 18.0415 6.36817C17.9819 6.15481 17.9866 5.9286 18.055 5.71789C18.1234 5.50718 18.2525 5.32136 18.4261 5.18373C18.5997 5.0461 18.81 4.96279 19.0308 4.94423L23.2116 4.58212L24.8435 0.689625C24.9288 0.485379 25.0725 0.310913 25.2567 0.188197C25.4409 0.0654807 25.6572 0 25.8785 0C26.0998 0 26.3162 0.0654807 26.5004 0.188197C26.6846 0.310913 26.8283 0.485379 26.9135 0.689625L28.5504 4.58212L32.7298 4.94423C32.9505 4.96279 33.1609 5.0461 33.3345 5.18373C33.5081 5.32136 33.6372 5.50718 33.7056 5.71789C33.774 5.9286 33.7787 6.15481 33.719 6.36817C33.6594 6.58152 33.5381 6.77252 33.3703 6.9172H33.3668Z" fill="white"/>
<path d="M51.3668 6.9172L48.1957 9.6847L49.1456 13.805C49.1959 14.0204 49.1816 14.2458 49.1044 14.4531C49.0272 14.6604 48.8907 14.8404 48.7118 14.9705C48.5329 15.1006 48.3197 15.1751 48.0987 15.1846C47.8777 15.1942 47.6588 15.1384 47.4694 15.0242L43.8757 12.8445L40.2898 15.0242C40.1003 15.1384 39.8814 15.1942 39.6605 15.1846C39.4395 15.1751 39.2262 15.1006 39.0474 14.9705C38.8685 14.8404 38.7319 14.6604 38.6548 14.4531C38.5776 14.2458 38.5633 14.0204 38.6135 13.805L39.562 9.68892L36.3902 6.9172C36.2225 6.77252 36.1012 6.58152 36.0415 6.36817C35.9819 6.15481 35.9866 5.9286 36.055 5.71789C36.1234 5.50718 36.2525 5.32136 36.4261 5.18373C36.5997 5.0461 36.81 4.96279 37.0308 4.94423L41.2116 4.58212L42.8435 0.689625C42.9288 0.485379 43.0725 0.310913 43.2567 0.188197C43.4409 0.0654807 43.6572 0 43.8785 0C44.0998 0 44.3162 0.0654807 44.5004 0.188197C44.6846 0.310913 44.8283 0.485379 44.9135 0.689625L46.5504 4.58212L50.7298 4.94423C50.9505 4.96279 51.1609 5.0461 51.3345 5.18373C51.5081 5.32136 51.6372 5.50718 51.7056 5.71789C51.774 5.9286 51.7787 6.15481 51.719 6.36817C51.6594 6.58152 51.5381 6.77252 51.3703 6.9172H51.3668Z" fill="white"/>
<path d="M69.3668 6.9172L66.1957 9.6847L67.1456 13.805C67.1959 14.0204 67.1816 14.2458 67.1044 14.4531C67.0272 14.6604 66.8907 14.8404 66.7118 14.9705C66.5329 15.1006 66.3197 15.1751 66.0987 15.1846C65.8777 15.1942 65.6588 15.1384 65.4694 15.0242L61.8757 12.8445L58.2898 15.0242C58.1003 15.1384 57.8814 15.1942 57.6605 15.1846C57.4395 15.1751 57.2262 15.1006 57.0474 14.9705C56.8685 14.8404 56.7319 14.6604 56.6548 14.4531C56.5776 14.2458 56.5633 14.0204 56.6135 13.805L57.562 9.68892L54.3902 6.9172C54.2225 6.77252 54.1012 6.58152 54.0415 6.36817C53.9819 6.15481 53.9866 5.9286 54.055 5.71789C54.1234 5.50718 54.2525 5.32136 54.4261 5.18373C54.5997 5.0461 54.81 4.96279 55.0308 4.94423L59.2116 4.58212L60.8435 0.689625C60.9288 0.485379 61.0725 0.310913 61.2567 0.188197C61.4409 0.0654807 61.6572 0 61.8785 0C62.0998 0 62.3162 0.0654807 62.5004 0.188197C62.6846 0.310913 62.8283 0.485379 62.9135 0.689625L64.5504 4.58212L68.7298 4.94423C68.9505 4.96279 69.1609 5.0461 69.3345 5.18373C69.5081 5.32136 69.6372 5.50718 69.7056 5.71789C69.774 5.9286 69.7787 6.15481 69.719 6.36817C69.6594 6.58152 69.5381 6.77252 69.3703 6.9172H69.3668Z" fill="white"/>
<path d="M87.3668 6.9172L84.1957 9.6847L85.1456 13.805C85.1959 14.0204 85.1816 14.2458 85.1044 14.4531C85.0272 14.6604 84.8907 14.8404 84.7118 14.9705C84.5329 15.1006 84.3197 15.1751 84.0987 15.1846C83.8777 15.1942 83.6588 15.1384 83.4694 15.0242L79.8757 12.8445L76.2898 15.0242C76.1003 15.1384 75.8814 15.1942 75.6605 15.1846C75.4395 15.1751 75.2262 15.1006 75.0474 14.9705C74.8685 14.8404 74.7319 14.6604 74.6548 14.4531C74.5776 14.2458 74.5633 14.0204 74.6135 13.805L75.562 9.68892L72.3902 6.9172C72.2225 6.77252 72.1012 6.58152 72.0415 6.36817C71.9819 6.15481 71.9866 5.9286 72.055 5.71789C72.1234 5.50718 72.2525 5.32136 72.4261 5.18373C72.5997 5.0461 72.81 4.96279 73.0308 4.94423L77.2116 4.58212L78.8435 0.689625C78.9288 0.485379 79.0725 0.310913 79.2567 0.188197C79.4409 0.0654807 79.6572 0 79.8785 0C80.0998 0 80.3162 0.0654807 80.5004 0.188197C80.6846 0.310913 80.8283 0.485379 80.9135 0.689625L82.5504 4.58212L86.7298 4.94423C86.9505 4.96279 87.1609 5.0461 87.3345 5.18373C87.5081 5.32136 87.6372 5.50718 87.7056 5.71789C87.774 5.9286 87.7787 6.15481 87.719 6.36817C87.6594 6.58152 87.5381 6.77252 87.3703 6.9172H87.3668Z" fill="white"/>
</svg>
