<svg width="106" height="446" viewBox="0 0 106 446" fill="none" xmlns="http://www.w3.org/2000/svg">
<path d="M1.97803 34.3706L12.8573 34.3706C4.71239 43.1971 -1.70935e-05 54.9463 -1.65263e-05 67.923C-1.5333e-05 95.2207 23.7365 117.375 53 117.375C82.2634 117.375 106 95.2207 106 67.923C106 54.9463 100.066 43.1971 90.6992 34.3706L102.742 34.3706L102.742 1.2072e-06L1.97803 5.61173e-06L1.97803 34.3706ZM76.0384 56.8752C76.0384 69.6765 65.7409 80.0228 53 80.0228C40.259 80.0228 29.9616 69.6765 29.9616 56.8752C29.9616 46.0029 37.4665 36.8841 47.5313 34.3706C49.2766 33.9615 51.1383 33.7277 53 33.7277C54.8617 33.7277 56.7234 33.9615 58.4687 34.3706C68.5335 36.8841 76.0384 46.0029 76.0384 56.8752Z" fill="white"/>
<path d="M75.6894 387.547L75.6894 342.83L102.684 342.83L102.684 446L28.9726 398.36L28.9726 438.05L1.97805 438.05L1.97804 340.199L75.6894 387.547Z" fill="white"/>
<path d="M1.96968 333.566L102.675 333.566L102.675 299.195L1.96968 299.195L1.96968 333.566Z" fill="white"/>
<path d="M25.7146 123.98L102.742 123.98L102.742 158.35L38.1646 158.35C31.8814 161.273 27.6926 167.294 27.6345 174.191C27.5763 181.147 31.7069 187.343 38.1646 190.383L102.684 190.383L102.684 224.754L38.3974 224.754C30.6597 227.092 27.7508 233.814 27.6926 241.588C27.6345 248.31 32.3469 254.273 38.3974 257.429L102.684 257.429L102.684 291.8L1.97804 291.8L1.97804 257.429L14.8353 257.429C13.09 256.026 0.407235 245.271 0.349056 227.326C0.290878 206.575 17.2788 195.235 18.4424 194.475C17.2206 193.656 -0.0581904 181.673 0.349054 160.513C0.639942 144.731 10.5884 130.351 25.7146 124.155L25.7146 123.98Z" fill="white"/>
</svg>
